<svg width="500" height="500" viewBox="0 0 500 500" fill="none" xmlns="http://www.w3.org/2000/svg">
<path d="M330.051 45.8349C285.412 21.1329 231.166 18.8269 180.491 37.8309C136.313 54.3979 85.6911 150.118 63.6021 175.889C41.5131 201.66 2.85609 262.405 22.1841 305.664C41.5121 348.922 99.9691 352.041 128.725 402.023C157.481 452.005 262.405 486.059 325.912 453.846C389.419 421.632 384.817 359.967 431.757 337.877C478.697 315.788 475.935 243.077 459.368 197.978C448.615 168.708 426.265 143.075 406.607 119.433C396.24 106.966 385.561 94.7659 374.971 82.4889C362.613 68.1639 346.621 55.0049 330.051 45.8349Z" fill="#DF7070"/>
<path opacity="0.7" d="M330.051 45.8349C285.412 21.1329 231.166 18.8269 180.491 37.8309C136.313 54.3979 85.6911 150.118 63.6021 175.889C41.5131 201.66 2.85609 262.405 22.1841 305.664C41.5121 348.922 99.9691 352.041 128.725 402.023C157.481 452.005 262.405 486.059 325.912 453.846C389.419 421.632 384.817 359.967 431.757 337.877C478.697 315.788 475.935 243.077 459.368 197.978C448.615 168.708 426.265 143.075 406.607 119.433C396.24 106.966 385.561 94.7659 374.971 82.4889C362.613 68.1639 346.621 55.0049 330.051 45.8349Z" fill="white"/>
<path d="M373.5 364C375.985 364 378 361.985 378 359.5C378 357.015 375.985 355 373.5 355C371.015 355 369 357.015 369 359.5C369 361.985 371.015 364 373.5 364Z" stroke="#263238" stroke-miterlimit="10" stroke-linejoin="round"/>
<path d="M432 409C434.485 409 436.5 406.985 436.5 404.5C436.5 402.015 434.485 400 432 400C429.515 400 427.5 402.015 427.5 404.5C427.5 406.985 429.515 409 432 409Z" stroke="#263238" stroke-miterlimit="10" stroke-linejoin="round"/>
<path d="M352 406C354.485 406 356.5 403.985 356.5 401.5C356.5 399.015 354.485 397 352 397C349.515 397 347.5 399.015 347.5 401.5C347.5 403.985 349.515 406 352 406Z" stroke="#263238" stroke-miterlimit="10"/>
<path d="M378.5 403C382.642 403 386 399.642 386 395.5C386 391.358 382.642 388 378.5 388C374.358 388 371 391.358 371 395.5C371 399.642 374.358 403 378.5 403Z" stroke="#263238" stroke-miterlimit="10" stroke-linejoin="round"/>
<path d="M369.5 433.5C371.985 433.5 374 431.485 374 429C374 426.515 371.985 424.5 369.5 424.5C367.015 424.5 365 426.515 365 429C365 431.485 367.015 433.5 369.5 433.5Z" stroke="#263238" stroke-miterlimit="10" stroke-linejoin="round"/>
<path d="M464.5 441.5C466.985 441.5 469 439.485 469 437C469 434.515 466.985 432.5 464.5 432.5C462.015 432.5 460 434.515 460 437C460 439.485 462.015 441.5 464.5 441.5Z" stroke="#263238" stroke-miterlimit="10" stroke-linejoin="round"/>
<path d="M469 365C471.485 365 473.5 362.985 473.5 360.5C473.5 358.015 471.485 356 469 356C466.515 356 464.5 358.015 464.5 360.5C464.5 362.985 466.515 365 469 365Z" stroke="#263238" stroke-miterlimit="10" stroke-linejoin="round"/>
<path d="M432.5 353.5C434.985 353.5 437 351.485 437 349C437 346.515 434.985 344.5 432.5 344.5C430.015 344.5 428 346.515 428 349C428 351.485 430.015 353.5 432.5 353.5Z" stroke="#263238" stroke-miterlimit="10" stroke-linejoin="round"/>
<path d="M447.5 377.5C451.642 377.5 455 374.142 455 370C455 365.858 451.642 362.5 447.5 362.5C443.358 362.5 440 365.858 440 370C440 374.142 443.358 377.5 447.5 377.5Z" stroke="#263238" stroke-miterlimit="10" stroke-linejoin="round"/>
<path d="M377 361.5L428.5 401.5" stroke="#263238" stroke-miterlimit="10" stroke-linejoin="round"/>
<path d="M434 401L445 377.5" stroke="#263238" stroke-miterlimit="10" stroke-linejoin="round"/>
<path d="M450 377.5L464.5 432.5L469 365" stroke="#263238" stroke-miterlimit="10" stroke-linejoin="round"/>
<path d="M427.5 407L374 429" stroke="#263238" stroke-miterlimit="10" stroke-linejoin="round"/>
<path d="M386 395.5L440.5 372.5" stroke="#263238" stroke-miterlimit="10" stroke-linejoin="round"/>
<path d="M376.5 388L373.5 364" stroke="#263238" stroke-miterlimit="10" stroke-linejoin="round"/>
<path d="M455 367.5L465 363" stroke="#263238" stroke-miterlimit="10" stroke-linejoin="round"/>
<path d="M354.5 405.5L366.5 425" stroke="#263238" stroke-miterlimit="10" stroke-linejoin="round"/>
<path d="M352 397L370.5 363" stroke="#263238" stroke-miterlimit="10" stroke-linejoin="round"/>
<path d="M384 401L460 437" stroke="#263238" stroke-miterlimit="10" stroke-linejoin="round"/>
<path d="M432 409L462 434" stroke="#263238" stroke-miterlimit="10" stroke-linejoin="round"/>
<path d="M378 359.5L440 370" stroke="#263238" stroke-miterlimit="10" stroke-linejoin="round"/>
<path d="M464.5 360.5L377 357.5" stroke="#263238" stroke-miterlimit="10" stroke-linejoin="round"/>
<path d="M465 358.5L437 351.5" stroke="#263238" stroke-miterlimit="10" stroke-linejoin="round"/>
<path d="M428 351L372.5 425.5" stroke="#263238" stroke-miterlimit="10" stroke-linejoin="round"/>
<path d="M371 398L356.5 401.5" stroke="#263238" stroke-miterlimit="10" stroke-linejoin="round"/>
<path d="M402.82 363.282C402.82 362.12 401.878 361.178 400.716 361.178C399.554 361.178 398.612 362.12 398.612 363.282C398.612 364.444 399.554 365.386 400.716 365.386C401.878 365.386 402.82 364.444 402.82 363.282Z" fill="#263238"/>
<path d="M381.808 415.596C381.808 414.434 380.866 413.492 379.704 413.492C378.542 413.492 377.6 414.434 377.6 415.596C377.6 416.758 378.542 417.7 379.704 417.7C380.866 417.7 381.808 416.758 381.808 415.596Z" fill="#263238"/>
<path d="M440.769 390.94C440.769 389.778 439.827 388.836 438.665 388.836C437.503 388.836 436.561 389.778 436.561 390.94C436.561 392.102 437.503 393.044 438.665 393.044C439.827 393.044 440.769 392.102 440.769 390.94Z" fill="#263238"/>
<path d="M440.216 426.458C440.216 425.296 439.274 424.354 438.112 424.354C436.95 424.354 436.008 425.296 436.008 426.458C436.008 427.62 436.95 428.562 438.112 428.562C439.274 428.562 440.216 427.62 440.216 426.458Z" fill="#263238"/>
<path d="M364.961 377.574C364.961 376.412 364.019 375.47 362.857 375.47C361.695 375.47 360.753 376.412 360.753 377.574C360.753 378.736 361.695 379.678 362.857 379.678C364.019 379.678 364.961 378.736 364.961 377.574Z" fill="#263238"/>
<path d="M467.935 376.295C469.097 376.295 470.039 375.353 470.039 374.191C470.039 373.029 469.097 372.087 467.935 372.087C466.773 372.087 465.831 373.029 465.831 374.191C465.831 375.353 466.773 376.295 467.935 376.295Z" fill="#263238"/>
<path d="M391.796 291.718V240.448C391.796 239.022 392.952 237.866 394.378 237.866H448.214C449.64 237.866 450.796 239.022 450.796 240.448V242.402" stroke="#263238" stroke-miterlimit="10"/>
<path d="M396.356 297.866H394.378C392.952 297.866 391.796 296.71 391.796 295.284" stroke="#263238" stroke-miterlimit="10"/>
<path d="M450.796 245.911V295.284C450.796 296.71 449.64 297.866 448.214 297.866H400.06" stroke="#263238" stroke-miterlimit="10"/>
<path d="M408.513 260.53V254.866H434.08V280.866H426.18" stroke="#263238" stroke-miterlimit="10"/>
<path d="M408.513 267.938V264.039" stroke="#263238" stroke-miterlimit="10"/>
<path d="M423.061 280.866H408.513V271.446" stroke="#263238" stroke-miterlimit="10"/>
<path d="M403.909 238.329V222.101" stroke="#263238" stroke-miterlimit="10"/>
<path d="M415.501 238.329V222.101" stroke="#263238" stroke-miterlimit="10"/>
<path d="M427.092 238.329V222.101" stroke="#263238" stroke-miterlimit="10"/>
<path d="M438.684 238.329V222.101" stroke="#263238" stroke-miterlimit="10"/>
<path d="M403.909 314.253V298.025" stroke="#263238" stroke-miterlimit="10"/>
<path d="M415.501 314.253V298.025" stroke="#263238" stroke-miterlimit="10"/>
<path d="M427.092 314.253V298.025" stroke="#263238" stroke-miterlimit="10"/>
<path d="M438.684 314.253V298.025" stroke="#263238" stroke-miterlimit="10"/>
<path d="M451.145 250.79H467.373" stroke="#263238" stroke-miterlimit="10"/>
<path d="M451.145 262.381H467.373" stroke="#263238" stroke-miterlimit="10"/>
<path d="M451.145 273.973H467.373" stroke="#263238" stroke-miterlimit="10"/>
<path d="M451.145 285.564H467.373" stroke="#263238" stroke-miterlimit="10"/>
<path d="M375.22 250.79H391.448" stroke="#263238" stroke-miterlimit="10"/>
<path d="M375.22 262.381H391.448" stroke="#263238" stroke-miterlimit="10"/>
<path d="M375.22 273.973H391.448" stroke="#263238" stroke-miterlimit="10"/>
<path d="M375.22 285.564H391.448" stroke="#263238" stroke-miterlimit="10"/>
<path d="M469.477 273.973C469.477 272.811 468.535 271.869 467.373 271.869C466.211 271.869 465.269 272.811 465.269 273.973C465.269 275.135 466.211 276.077 467.373 276.077C468.535 276.077 469.477 275.135 469.477 273.973Z" fill="#263238"/>
<path d="M399.475 238.326C399.475 237.164 398.533 236.222 397.371 236.222C396.209 236.222 395.267 237.164 395.267 238.326C395.267 239.488 396.209 240.43 397.371 240.43C398.533 240.43 399.475 239.488 399.475 238.326Z" fill="#263238"/>
<path d="M384.944 285.09C384.944 283.928 384.002 282.986 382.84 282.986C381.678 282.986 380.736 283.928 380.736 285.09C380.736 286.252 381.678 287.194 382.84 287.194C384.002 287.194 384.944 286.252 384.944 285.09Z" fill="#263238"/>
<path d="M427.094 229.445C428.256 229.445 429.198 228.503 429.198 227.341C429.198 226.179 428.256 225.237 427.094 225.237C425.932 225.237 424.99 226.179 424.99 227.341C424.99 228.503 425.932 229.445 427.094 229.445Z" fill="#263238"/>
<path d="M423.014 297.958C423.014 296.796 422.072 295.854 420.91 295.854C419.748 295.854 418.806 296.796 418.806 297.958C418.806 299.12 419.748 300.062 420.91 300.062C422.072 300.062 423.014 299.12 423.014 297.958Z" fill="#263238"/>
<path d="M440.81 309.257C440.81 308.095 439.868 307.153 438.706 307.153C437.544 307.153 436.602 308.095 436.602 309.257C436.602 310.419 437.544 311.361 438.706 311.361C439.868 311.361 440.81 310.418 440.81 309.257Z" fill="#263238"/>
<path d="M348.864 76.724C348.864 76.724 344.655 77.695 343.36 80.933C342.065 84.171 333 105.863 333 108.453C333 111.043 334.943 112.986 334.943 112.986L356.311 121.728C356.311 121.728 360.844 120.433 364.405 121.08C367.966 121.728 370.233 127.879 373.794 128.527C377.355 129.174 392.248 128.203 399.371 124.966C406.494 121.728 408.76 111.692 408.76 104.893C408.76 98.094 406.494 91.295 404.551 90C402.608 88.705 401.637 88.057 401.637 88.057" stroke="#263238" stroke-miterlimit="10"/>
<path d="M396.781 84.818C396.781 84.818 394.515 82.875 400.342 83.847C406.17 84.818 420.739 103.92 425.595 110.072C430.451 116.223 435.308 116.547 439.193 112.662C443.078 108.777 440.164 103.92 438.869 101.33C437.574 98.74 432.07 92.265 430.128 87.732C428.185 83.199 422.681 71.544 418.149 68.63C413.616 65.716 406.817 65.069 396.457 69.277C386.097 73.485 381.24 77.047 381.24 77.047" stroke="#263238" stroke-miterlimit="10"/>
<path d="M352.749 76.4L373.146 75.105" stroke="#263238" stroke-miterlimit="10"/>
<path d="M363.434 115.251C367.319 113.956 366.995 112.013 370.881 106.833C374.766 101.653 379.299 84.1701 379.622 81.9031C379.946 79.6371 378.651 78.0181 378.651 78.0181L398.076 87.7931" stroke="#263238" stroke-miterlimit="10"/>
<path d="M339.799 112.985H357.606C357.606 112.985 362.462 109.747 364.729 103.92C366.995 98.092 371.528 84.818 372.823 81.904C374.118 78.99 372.823 77.048 372.823 77.048" stroke="#263238" stroke-miterlimit="10"/>
<path d="M359.548 120.755C359.548 120.755 350.483 115.899 354.692 116.546C358.901 117.193 368.29 123.021 375.089 123.021C381.888 123.021 384.478 119.136 387.716 113.956C390.954 108.776 398.724 94.854 398.724 90.645" stroke="#263238" stroke-miterlimit="10"/>
<path d="M427.538 122.374C427.538 122.374 433.042 115.251 438.222 121.727C443.402 128.202 436.279 138.239 433.366 141.153C430.452 144.067 422.358 144.067 421.063 143.419C419.768 142.772 418.797 141.8 418.797 141.8" stroke="#263238" stroke-miterlimit="10"/>
<path d="M433.042 115.251L449.878 134.677C449.878 134.677 450.202 129.497 453.116 127.231C456.03 124.965 457.325 124.317 457.325 124.317L441.785 108.129" stroke="#263238" stroke-miterlimit="10"/>
<path d="M459.267 124.964H461.533C461.533 124.964 467.361 132.087 467.361 134.029C467.361 135.972 458.296 148.922 455.382 148.922C452.468 148.922 448.259 146.656 448.259 146.656C448.259 146.656 449.878 144.39 451.173 142.123C452.468 139.857 451.173 136.619 451.173 136.619C451.173 136.619 457.001 140.828 456.03 146.332" stroke="#263238" stroke-miterlimit="10"/>
<path d="M363.81 164.82C369.685 166.122 380.4 166.31 382.535 167.377C385.125 168.672 390.953 184.86 390.953 184.86" stroke="#263238" stroke-miterlimit="10"/>
<path d="M358.901 122.698C358.901 122.698 355.987 124.641 357.606 127.231C359.225 129.821 362.786 131.44 362.786 131.44C362.786 131.44 357.93 136.62 358.901 138.887C359.872 141.153 358.901 143.42 358.901 143.42C358.901 143.42 357.93 146.334 358.253 147.953C358.577 149.572 358.901 152.162 358.901 152.162C358.901 152.162 356.958 161.551 360.844 163.817" stroke="#263238" stroke-miterlimit="10"/>
<path d="M448.259 146.656C448.259 146.656 442.108 152.16 441.784 158.959C441.46 165.758 440.813 167.701 440.813 167.701" stroke="#263238" stroke-miterlimit="10"/>
<path d="M464.863 115.731C464.263 119.395 463.377 122.205 462.828 123.669" stroke="#263238" stroke-miterlimit="10"/>
<path d="M465.46 106.017C465.521 107.422 465.513 108.783 465.453 110.089" stroke="#263238" stroke-miterlimit="10"/>
<path d="M416.854 65.716C416.854 65.716 436.603 62.155 453.763 79.314C461.062 86.613 464.143 94.79 465.125 102.177" stroke="#263238" stroke-miterlimit="10"/>
<path d="M339.481 92.2071C340.767 92.2071 341.81 91.1643 341.81 89.8781C341.81 88.5918 340.767 87.5491 339.481 87.5491C338.195 87.5491 337.152 88.5918 337.152 89.8781C337.152 91.1643 338.195 92.2071 339.481 92.2071Z" fill="#263238"/>
<path d="M387.233 129.769C388.519 129.769 389.562 128.726 389.562 127.44C389.562 126.154 388.519 125.111 387.233 125.111C385.947 125.111 384.904 126.154 384.904 127.44C384.904 128.726 385.947 129.769 387.233 129.769Z" fill="#263238"/>
<path d="M383.448 169.368C384.734 169.368 385.777 168.325 385.777 167.039C385.777 165.753 384.734 164.71 383.448 164.71C382.162 164.71 381.119 165.753 381.119 167.039C381.119 168.325 382.162 169.368 383.448 169.368Z" fill="#263238"/>
<path d="M427.925 110.071C427.925 108.785 426.882 107.742 425.596 107.742C424.31 107.742 423.267 108.785 423.267 110.071C423.267 111.358 424.31 112.4 425.596 112.4C426.882 112.401 427.925 111.358 427.925 110.071Z" fill="#263238"/>
<path d="M422.465 75.901C423.751 75.901 424.794 74.8583 424.794 73.572C424.794 72.2858 423.751 71.243 422.465 71.243C421.178 71.243 420.136 72.2858 420.136 73.572C420.136 74.8583 421.178 75.901 422.465 75.901Z" fill="#263238"/>
<path d="M382.405 78.794C383.691 78.794 384.734 77.7513 384.734 76.465C384.734 75.1787 383.691 74.136 382.405 74.136C381.119 74.136 380.076 75.1787 380.076 76.465C380.076 77.7513 381.119 78.794 382.405 78.794Z" fill="#263238"/>
<path d="M460.318 127.439C461.605 127.439 462.647 126.396 462.647 125.11C462.647 123.824 461.605 122.781 460.318 122.781C459.032 122.781 457.989 123.824 457.989 125.11C457.989 126.396 459.032 127.439 460.318 127.439Z" fill="#263238"/>
<path d="M74.1132 70.6331H70.0122" stroke="#263238" stroke-miterlimit="10"/>
<path d="M55.7368 117.704H74.1118C75.7508 117.704 77.2658 116.829 78.0858 115.41L89.0248 96.463C89.8448 95.043 89.8448 93.294 89.0248 91.875L78.0868 72.927" stroke="#263238" stroke-miterlimit="10"/>
<path d="M66.188 70.6331H52.235C50.596 70.6331 49.081 71.5071 48.261 72.9271L37.322 91.8741C36.502 93.2941 36.502 95.0431 37.322 96.4621L48.261 115.409C49.081 116.829 50.595 117.703 52.235 117.703" stroke="#263238" stroke-miterlimit="10"/>
<path d="M88.8628 135.165L91.9948 140.591C92.8148 142.011 94.3288 142.885 95.9688 142.885H117.847C119.486 142.885 121.001 142.01 121.821 140.591L132.76 121.644C133.58 120.224 133.58 118.475 132.76 117.056L126.302 105.87" stroke="#263238" stroke-miterlimit="10"/>
<path d="M86.0479 130.289L87.6609 133.084" stroke="#263238" stroke-miterlimit="10"/>
<path d="M124.294 102.391L121.821 98.1081C121.001 96.6881 119.487 95.8141 117.847 95.8141H95.9689C94.3299 95.8141 92.8149 96.6891 91.9949 98.1081L81.0559 117.055C80.2359 118.475 80.2359 120.224 81.0559 121.643L84.2939 127.251" stroke="#263238" stroke-miterlimit="10"/>
<path d="M88.2409 53.587L81.0559 66.031C80.2359 67.451 80.2359 69.2 81.0559 70.619L91.9949 89.566C92.8149 90.986 94.3289 91.86 95.9689 91.86H117.847C119.486 91.86 121.001 90.985 121.821 89.566L132.76 70.62C133.58 69.2 133.58 67.451 132.76 66.032L132.027 64.763" stroke="#263238" stroke-miterlimit="10"/>
<path d="M91.9948 47.084L90.2788 50.057" stroke="#263238" stroke-miterlimit="10"/>
<path d="M130.826 62.681L121.821 47.084C121.001 45.664 119.487 44.79 117.847 44.79H95.9688C95.6058 44.79 95.2478 44.833 94.9028 44.915" stroke="#263238" stroke-miterlimit="10"/>
<path d="M161.582 69.9701H139.704C138.065 69.9701 136.55 70.8451 135.73 72.2641L124.791 91.2111C123.971 92.6311 123.971 94.3801 124.791 95.7991L135.73 114.746C136.55 116.166 138.064 117.04 139.704 117.04H161.582C163.221 117.04 164.736 116.165 165.556 114.746L176.495 95.8001C177.315 94.3801 177.315 92.6311 176.495 91.2121L165.556 72.2651C164.736 70.8451 163.221 69.9701 161.582 69.9701Z" stroke="#263238" stroke-miterlimit="10"/>
<path d="M117.582 147.97H95.7043C94.0653 147.97 92.5503 148.844 91.7303 150.264L80.7913 169.211C79.9713 170.631 79.9713 172.38 80.7913 173.799L91.7303 192.746C92.5503 194.166 94.0643 195.04 95.7043 195.04H117.582C119.221 195.04 120.736 194.166 121.556 192.746L132.495 173.799C133.315 172.379 133.315 170.63 132.495 169.211L121.556 150.264C120.736 148.845 119.221 147.97 117.582 147.97Z" stroke="#263238" stroke-miterlimit="10"/>
<path d="M169.132 161.608L177.483 147.144C178.303 145.724 178.303 143.975 177.483 142.556L166.544 123.609C165.724 122.189 164.21 121.315 162.57 121.315H140.692C139.053 121.315 137.538 122.189 136.718 123.609L125.779 142.556C124.959 143.976 124.959 145.725 125.779 147.144L136.718 166.091C137.538 167.511 139.052 168.385 140.692 168.385H158.207" stroke="#263238" stroke-miterlimit="10"/>
<path d="M162.571 168.385C164.21 168.385 165.725 167.51 166.545 166.091L167.205 164.947" stroke="#263238" stroke-miterlimit="10"/>
<path d="M117.814 126.415L120.479 127.023L121.096 124.319L118.536 123.735C118.539 123.659 118.548 123.584 118.548 123.507C118.548 122.659 118.375 121.851 118.064 121.116L120.14 119.46L118.411 117.292L116.425 118.876C115.738 118.281 114.918 117.84 114.015 117.596V115.01H111.242V117.494C110.309 117.676 109.455 118.072 108.725 118.625L106.717 117.024L104.988 119.192L106.948 120.755C106.545 121.554 106.311 122.45 106.295 123.402L103.741 123.985L104.358 126.689L106.877 126.114C107.261 126.929 107.815 127.648 108.499 128.219L107.327 130.653L109.826 131.856L110.98 129.46C111.442 129.571 111.922 129.637 112.418 129.637C112.816 129.637 113.204 129.596 113.581 129.524L114.776 132.006L117.275 130.803L116.113 128.39C116.812 127.86 117.396 127.19 117.814 126.415ZM109.698 123.507C109.698 122.004 110.916 120.786 112.419 120.786C113.922 120.786 115.14 122.004 115.14 123.507C115.14 125.01 113.922 126.228 112.419 126.228C110.916 126.228 109.698 125.01 109.698 123.507Z" stroke="#263238" stroke-miterlimit="10"/>
<path d="M104.806 115.481L107.471 116.089L108.088 113.385L105.528 112.801C105.531 112.725 105.54 112.65 105.54 112.573C105.54 111.725 105.367 110.917 105.056 110.182L107.132 108.526L105.403 106.358L103.417 107.941C102.73 107.346 101.91 106.905 101.007 106.661V104.075H98.2339V106.559C97.3009 106.741 96.4469 107.137 95.7169 107.69L93.7089 106.089L91.9799 108.257L93.9399 109.82C93.5369 110.619 93.3029 111.515 93.2869 112.467L90.7329 113.05L91.3499 115.754L93.8699 115.179C94.2539 115.994 94.8079 116.713 95.4919 117.284L94.3199 119.717L96.8189 120.92L97.9729 118.524C98.4349 118.635 98.9149 118.701 99.4109 118.701C99.8089 118.701 100.197 118.66 100.574 118.587L101.769 121.069L104.268 119.866L103.106 117.453C103.803 116.925 104.387 116.256 104.806 115.481ZM96.6899 112.573C96.6899 111.07 97.9079 109.852 99.4109 109.852C100.914 109.852 102.132 111.07 102.132 112.573C102.132 114.076 100.914 115.294 99.4109 115.294C97.9079 115.294 96.6899 114.075 96.6899 112.573Z" stroke="#263238" stroke-miterlimit="10"/>
<path d="M156.073 95.0688C157.976 90.5049 155.818 85.2626 151.253 83.3597C146.689 81.4568 141.446 83.6139 139.544 88.1778C137.641 92.7417 139.799 97.984 144.363 99.8869C148.928 101.79 154.17 99.6327 156.073 95.0688Z" stroke="#263238" stroke-miterlimit="10"/>
<path d="M147.806 99.2171C152.002 99.2171 155.403 95.8158 155.403 91.6201C155.403 87.4244 152.002 84.0231 147.806 84.0231C143.611 84.0231 140.209 87.4244 140.209 91.6201C140.209 95.8158 143.611 99.2171 147.806 99.2171Z" stroke="#263238" stroke-miterlimit="10"/>
<path d="M157.875 101.079L163.814 106" stroke="#263238" stroke-width="3" stroke-miterlimit="10"/>
<path d="M154.318 98.1321L157.875 101.079" stroke="#263238" stroke-width="2" stroke-miterlimit="10"/>
<path d="M49.5742 88.1781H76.1652" stroke="#263238" stroke-miterlimit="10"/>
<path d="M55.2593 86.7111H52.5083V89.4621H55.2593V86.7111Z" fill="#263238"/>
<path d="M49.5742 94.4131H76.1652" stroke="#263238" stroke-miterlimit="10"/>
<path d="M69.4722 92.946H66.7212V95.697H69.4722V92.946Z" fill="#263238"/>
<path d="M49.5742 100.648H76.1652" stroke="#263238" stroke-miterlimit="10"/>
<path d="M63.145 99.181H60.394V101.932H63.145V99.181Z" fill="#263238"/>
<path d="M151 170.334C152.162 170.334 153.104 169.392 153.104 168.23C153.104 167.068 152.162 166.126 151 166.126C149.838 166.126 148.896 167.068 148.896 168.23C148.896 169.392 149.838 170.334 151 170.334Z" fill="#263238"/>
<path d="M167.384 127.174C168.546 127.174 169.488 126.232 169.488 125.07C169.488 123.908 168.546 122.966 167.384 122.966C166.222 122.966 165.28 123.908 165.28 125.07C165.28 126.232 166.222 127.174 167.384 127.174Z" fill="#263238"/>
<path d="M105.762 96.266C105.762 95.104 104.82 94.162 103.658 94.162C102.496 94.162 101.554 95.104 101.554 96.266C101.554 97.428 102.496 98.37 103.658 98.37C104.82 98.37 105.762 97.428 105.762 96.266Z" fill="#263238"/>
<path d="M128.194 54.718C128.194 53.556 127.252 52.614 126.09 52.614C124.928 52.614 123.986 53.556 123.986 54.718C123.986 55.88 124.928 56.822 126.09 56.822C127.252 56.821 128.194 55.88 128.194 54.718Z" fill="#263238"/>
<path d="M47.3901 110.541C47.3901 109.379 46.4481 108.437 45.2861 108.437C44.1241 108.437 43.1821 109.379 43.1821 110.541C43.1821 111.703 44.1241 112.645 45.2861 112.645C46.4481 112.645 47.3901 111.703 47.3901 110.541Z" fill="#263238"/>
<path d="M112.645 142.658C112.645 141.496 111.703 140.554 110.541 140.554C109.379 140.554 108.437 141.496 108.437 142.658C108.437 143.82 109.379 144.762 110.541 144.762C111.703 144.762 112.645 143.82 112.645 142.658Z" fill="#263238"/>
<path d="M85.3032 177.609C85.3032 176.447 84.3612 175.505 83.1992 175.505C82.0372 175.505 81.0952 176.447 81.0952 177.609C81.0952 178.771 82.0372 179.713 83.1992 179.713C84.3612 179.713 85.3032 178.771 85.3032 177.609Z" fill="#263238"/>
<path d="M127.848 163.353C129.01 163.353 129.952 162.411 129.952 161.249C129.952 160.087 129.01 159.145 127.848 159.145C126.686 159.145 125.744 160.087 125.744 161.249C125.744 162.411 126.686 163.353 127.848 163.353Z" fill="#263238"/>
<path d="M170.442 83.331C171.604 83.331 172.546 82.3891 172.546 81.227C172.546 80.065 171.604 79.123 170.442 79.123C169.28 79.123 168.338 80.065 168.338 81.227C168.338 82.3891 169.28 83.331 170.442 83.331Z" fill="#263238"/>
<path d="M144.507 116.913C144.507 115.751 143.565 114.809 142.403 114.809C141.241 114.809 140.299 115.751 140.299 116.913C140.299 118.075 141.241 119.017 142.403 119.017C143.565 119.017 144.507 118.075 144.507 116.913Z" fill="#263238"/>
<path d="M86.8999 77.404C86.8999 76.242 85.9579 75.3 84.7959 75.3C83.6339 75.3 82.6919 76.242 82.6919 77.404C82.6919 78.566 83.6339 79.508 84.7959 79.508C85.9579 79.508 86.8999 78.566 86.8999 77.404Z" fill="#263238"/>
<path d="M103.458 315.772C103.458 317.274 102.241 318.491 100.739 318.491H54.907C53.405 318.491 52.188 317.274 52.188 315.772V230.322C52.188 228.82 53.405 227.603 54.907 227.603H100.739C102.241 227.603 103.458 228.82 103.458 230.322V307.41" stroke="#263238" stroke-miterlimit="10"/>
<path d="M90.2152 235.854H100.404V310.24H55.2432V299.022" stroke="#263238" stroke-miterlimit="10"/>
<path d="M80.7788 235.854H86.0208" stroke="#263238" stroke-miterlimit="10"/>
<path d="M55.2432 293.78V235.854H76.5852" stroke="#263238" stroke-miterlimit="10"/>
<path d="M79.4229 313.598C79.4229 312.671 78.6709 311.919 77.7439 311.919C76.8169 311.919 76.0649 312.671 76.0649 313.598C76.0649 314.525 76.8169 315.277 77.7439 315.277C78.6719 315.276 79.4229 314.525 79.4229 313.598Z" stroke="#263238" stroke-miterlimit="10"/>
<path d="M78.5288 227.956C78.5288 226.794 77.5868 225.852 76.4248 225.852C75.2628 225.852 74.3208 226.794 74.3208 227.956C74.3208 229.118 75.2628 230.06 76.4248 230.06C77.5868 230.06 78.5288 229.118 78.5288 227.956Z" fill="#263238"/>
<path d="M93.3672 309.856C93.3672 308.694 92.4252 307.752 91.2632 307.752C90.1012 307.752 89.1592 308.694 89.1592 309.856C89.1592 311.018 90.1012 311.96 91.2632 311.96C92.4252 311.96 93.3672 311.018 93.3672 309.856Z" fill="#263238"/>
<path d="M103.495 272.119C104.657 272.119 105.599 271.177 105.599 270.015C105.599 268.853 104.657 267.911 103.495 267.911C102.333 267.911 101.391 268.853 101.391 270.015C101.391 271.177 102.333 272.119 103.495 272.119Z" fill="#263238"/>
<path d="M64.3599 317.894C64.3599 316.732 63.4179 315.79 62.2559 315.79C61.0939 315.79 60.1519 316.732 60.1519 317.894C60.1519 319.056 61.0939 319.998 62.2559 319.998C63.4179 319.998 64.3599 319.056 64.3599 317.894Z" fill="#263238"/>
<path d="M63.312 235.417C63.312 234.255 62.37 233.313 61.208 233.313C60.046 233.313 59.104 234.255 59.104 235.417C59.104 236.579 60.046 237.521 61.208 237.521C62.37 237.521 63.312 236.579 63.312 235.417Z" fill="#263238"/>
<path d="M31.1279 410.355V355.246C31.1279 352.664 33.2209 350.57 35.8039 350.57H120.592C123.174 350.57 125.268 352.663 125.268 355.246V410.588" stroke="#263238" stroke-miterlimit="10"/>
<path d="M66.382 416.655H61.96" stroke="#263238" stroke-miterlimit="10"/>
<path d="M56.3759 416.655H27.2989C24.9379 416.655 23.0229 414.741 23.0229 412.379V410.42H133.372V412.379C133.372 414.74 131.458 416.655 129.096 416.655H70.5699" stroke="#263238" stroke-miterlimit="10"/>
<path d="M71.501 354.044H76.154" stroke="#263238" stroke-miterlimit="10"/>
<path d="M79.645 354.044H122.227V409.657H34.271V354.044H65.218" stroke="#263238" stroke-miterlimit="10"/>
<path d="M49.5308 350.249C49.5308 349.087 48.5888 348.145 47.4268 348.145C46.2648 348.145 45.3228 349.087 45.3228 350.249C45.3228 351.411 46.2648 352.353 47.4268 352.353C48.5888 352.352 49.5308 351.41 49.5308 350.249Z" fill="#263238"/>
<path d="M132.6 410.515C132.6 409.353 131.658 408.411 130.496 408.411C129.334 408.411 128.392 409.353 128.392 410.515C128.392 411.677 129.334 412.619 130.496 412.619C131.658 412.619 132.6 411.677 132.6 410.515Z" fill="#263238"/>
<path d="M117.117 354.277C117.117 353.115 116.175 352.173 115.013 352.173C113.851 352.173 112.909 353.115 112.909 354.277C112.909 355.439 113.851 356.381 115.013 356.381C116.175 356.381 117.117 355.439 117.117 354.277Z" fill="#263238"/>
<path d="M41.0278 416.405C41.0278 415.243 40.0858 414.301 38.9238 414.301C37.7618 414.301 36.8198 415.243 36.8198 416.405C36.8198 417.567 37.7618 418.509 38.9238 418.509C40.0858 418.509 41.0278 417.567 41.0278 416.405Z" fill="#263238"/>
<path d="M317.167 39.08H258.111C256.325 39.08 254.876 40.528 254.876 42.315V72.54C254.876 74.327 256.324 75.775 258.111 75.775H290.405L285.454 90.627L298.079 75.775H317.166C318.952 75.775 320.401 74.327 320.401 72.54V42.315C320.401 40.529 318.953 39.08 317.167 39.08Z" stroke="#263238" stroke-miterlimit="10"/>
<path d="M301.157 49.5199H312.767" stroke="#263238" stroke-miterlimit="10"/>
<path d="M293.282 49.5199H298.048" stroke="#263238" stroke-miterlimit="10"/>
<path d="M274.011 49.5199H288.724" stroke="#263238" stroke-miterlimit="10"/>
<path d="M264.519 49.5199H270.281" stroke="#263238" stroke-miterlimit="10"/>
<path d="M309.238 57.1379H312.767" stroke="#263238" stroke-miterlimit="10"/>
<path d="M278.363 57.1379H306.752" stroke="#263238" stroke-miterlimit="10"/>
<path d="M264.519 57.1379H275.461" stroke="#263238" stroke-miterlimit="10"/>
<path d="M308.409 64.756H312.767" stroke="#263238" stroke-miterlimit="10"/>
<path d="M299.292 64.756H303.851" stroke="#263238" stroke-miterlimit="10"/>
<path d="M273.804 64.756H295.355" stroke="#263238" stroke-miterlimit="10"/>
<path d="M264.519 64.756H271.317" stroke="#263238" stroke-miterlimit="10"/>
<path d="M305.608 340.724H192.34V390.967H305.608V340.724Z" fill="#263238" stroke="#263238" stroke-miterlimit="10"/>
<path d="M257.659 342.414H240.529V348.964H257.659V342.414Z" fill="white" stroke="#263238" stroke-miterlimit="10"/>
<path d="M326.07 209.084C326.07 207.886 323.374 206.089 319.18 203.692C314.986 201.296 275.445 183.322 275.445 183.322L252.08 182.105V181.824L249.384 181.965L246.688 181.824V182.105L223.323 183.322C223.323 183.322 183.782 201.295 179.588 203.692C175.394 206.088 172.698 207.886 172.698 209.084C172.698 210.282 190.252 323.019 190.566 326.164C190.881 329.309 190.566 338.431 190.566 340.632C190.566 342.833 195.284 344.092 195.284 344.092H246.553H252.215H303.484C303.484 344.092 308.202 342.834 308.202 340.632C308.202 338.43 307.888 329.309 308.202 326.164C308.517 323.02 326.07 210.283 326.07 209.084Z" fill="#DF7070" stroke="#263238" stroke-miterlimit="10"/>
<path d="M319.181 203.692C314.987 201.296 275.446 183.322 275.446 183.322L252.081 182.105V181.824L249.385 181.965L246.689 181.824V182.105L223.324 183.322C223.324 183.322 183.783 201.295 179.589 203.692C175.395 206.088 172.699 207.886 172.699 209.084C172.699 209.486 174.68 222.474 177.321 239.658L178.574 240.69C178.574 240.69 185.633 216.691 206.809 206.808C227.985 196.926 236.455 194.102 256.925 194.102C276.116 194.102 310.819 222.021 321.478 239.47C324.105 222.379 326.071 209.485 326.071 209.084C326.07 207.886 323.374 206.089 319.181 203.692Z" fill="#263238" stroke="#263238" stroke-miterlimit="10"/>
<path d="M237.103 205.19L248.486 216.274L233.508 319.018L248.708 342.344L266.217 318.744L254.777 215.974L265.561 204.591L251.781 189.913L237.103 205.19Z" fill="#263238" stroke="#263238" stroke-miterlimit="10"/>
<path d="M272.321 96.618C269.055 95.918 261.774 94.441 255.945 93.266V91.579C255.945 91.579 254.259 91.916 251.746 92.421C249.233 91.916 247.547 91.579 247.547 91.579V93.266C241.718 94.441 234.437 95.918 231.171 96.618C225.292 97.878 221.723 97.878 221.723 103.756C221.723 103.756 223.403 145.957 224.242 149.946C225.082 153.935 225.712 159.184 228.441 161.494C231.17 163.803 231.38 164.643 231.38 164.643V177.24C231.38 177.24 241.456 198.862 243.348 200.335C248.801 204.578 255.077 204.276 260.144 200.335C262.034 198.865 272.111 177.24 272.111 177.24V164.643C272.111 164.643 272.321 163.803 275.05 161.494C277.779 159.184 278.409 153.936 279.249 149.946C280.089 145.957 281.769 103.756 281.769 103.756C281.769 97.878 278.2 97.878 272.321 96.618Z" fill="white" stroke="#263238" stroke-miterlimit="10"/>
<path d="M233.688 103.337C233.688 103.337 254.474 111.945 260.352 111.945C266.231 111.945 259.722 109.216 259.722 109.216C259.722 109.216 267.91 111.945 271.059 111.945C274.208 111.945 274.208 111.945 274.208 111.945C274.208 111.945 274.628 117.824 275.048 118.454C275.468 119.084 275.258 119.924 275.888 120.344C276.518 120.764 277.358 121.604 277.358 121.604C277.358 121.604 278.828 144.489 279.668 146.798C280.508 149.108 281.977 112.995 281.977 112.995C281.977 112.995 285.126 110.056 284.497 104.597C283.867 99.138 272.11 90.11 259.722 85.911C247.335 81.712 237.887 87.171 233.688 90.95C229.489 94.729 228.859 96.409 228.859 96.409C228.859 96.409 222.35 95.989 221.301 98.509C220.251 101.029 224.66 145.749 224.66 145.749L225.71 121.604C225.71 121.604 229.069 118.035 229.279 116.145C229.489 114.255 231.588 105.857 231.588 105.857C231.588 105.857 234.737 107.747 235.577 107.117C236.418 106.486 233.688 103.337 233.688 103.337Z" fill="#263238" stroke="#263238" stroke-miterlimit="10"/>
<path d="M223.4 132.73C223.4 132.73 222.14 130.84 220.671 132.1C219.201 133.36 217.942 141.758 218.782 143.857C219.622 145.957 220.881 149.106 221.931 149.316C222.981 149.526 224.24 149.946 224.24 149.946L223.4 132.73Z" fill="#263238" stroke="#263238" stroke-miterlimit="10"/>
<path d="M280.239 132.73C280.239 132.73 281.499 130.84 282.968 132.1C284.438 133.36 285.697 141.758 284.858 143.857C284.018 145.957 282.758 149.106 281.709 149.316C280.659 149.526 279.399 149.946 279.399 149.946L280.239 132.73Z" fill="#263238" stroke="#263238" stroke-miterlimit="10"/>
<path d="M229.279 120.133C229.279 120.133 231.379 116.144 234.948 115.724C238.517 115.304 246.915 117.404 246.286 120.133C245.656 122.862 229.279 120.133 229.279 120.133Z" fill="#263238" stroke="#263238" stroke-miterlimit="10"/>
<path d="M274.243 120.133C274.243 120.133 272.143 116.144 268.574 115.724C265.005 115.304 256.607 117.404 257.237 120.133C257.867 122.862 274.243 120.133 274.243 120.133Z" fill="#263238" stroke="#263238" stroke-miterlimit="10"/>
<path d="M246.589 132.73H228.976C227.759 132.73 226.772 131.743 226.772 130.525L225.92 121.707C225.92 120.489 226.907 119.502 228.124 119.502H247.44C248.657 119.502 249.644 120.489 249.644 121.707L248.792 130.525C248.793 131.743 247.806 132.73 246.589 132.73Z" fill="white" stroke="#263238" stroke-miterlimit="10"/>
<path d="M273.883 132.73H256.27C255.053 132.73 254.066 131.743 254.066 130.525L253.214 121.707C253.214 120.489 254.201 119.502 255.418 119.502H274.734C275.951 119.502 276.938 120.489 276.938 121.707L276.086 130.525C276.087 131.743 275.1 132.73 273.883 132.73Z" fill="white" stroke="#263238" stroke-miterlimit="10"/>
<path d="M255.419 119.503H247.44" stroke="#263238" stroke-miterlimit="10"/>
<path d="M249.646 121.707H253.215" stroke="#263238" stroke-miterlimit="10"/>
<path d="M249.436 123.492C249.436 123.492 246.497 133.99 246.497 135.249C246.497 136.509 247.547 136.929 247.547 136.929C247.547 136.929 248.597 133.36 249.647 132.94C250.697 132.52 254.056 132.73 254.056 132.73L256.155 136.929C256.155 136.929 256.785 136.509 256.995 135.039C257.205 133.569 253.426 123.282 253.426 123.282C253.426 123.282 250.486 122.442 249.436 123.492Z" fill="#263238" stroke="#263238" stroke-miterlimit="10"/>
<path d="M241.324 169.237C241.898 169.426 242.439 169.579 242.926 169.682" stroke="#263238" stroke-miterlimit="10"/>
<path d="M231.379 164.643C231.379 164.643 235.548 166.959 239.328 168.495" stroke="#263238" stroke-miterlimit="10"/>
<path d="M272.111 164.013C272.111 164.013 267.282 168.212 262.873 168.842" stroke="#263238" stroke-miterlimit="10"/>
<path d="M241.667 150.156C241.667 150.156 248.805 148.686 252.795 148.686C256.784 148.686 261.613 150.576 261.613 150.576C261.613 150.576 257.204 144.487 255.524 143.857C253.844 143.227 249.225 143.857 247.756 143.857C246.286 143.858 241.667 150.156 241.667 150.156Z" fill="#263238" stroke="#263238" stroke-miterlimit="10" stroke-linejoin="round"/>
<path d="M257.834 154.318C257.834 154.318 250.066 154.108 247.336 154.318C244.607 154.528 244.187 157.887 244.187 157.887C244.187 157.887 249.226 156.417 252.165 156.417C255.104 156.417 259.933 157.467 259.933 157.467C259.933 157.467 260.354 155.788 257.834 154.318Z" fill="#263238" stroke="#263238" stroke-miterlimit="10" stroke-linejoin="round"/>
<path d="M172.699 209.084L141.545 291.462L169.404 304.343L184.681 274.986L172.699 209.084Z" fill="#DF7070" stroke="#263238" stroke-miterlimit="10"/>
<path d="M179.755 284.451C178.686 282.566 177.098 279.938 174.795 276.484C169.403 268.396 163.712 263.304 163.712 263.304C163.712 263.304 165.809 263.903 170.003 266.599C174.197 269.295 176.593 270.793 175.694 267.198C174.795 263.603 166.108 251.921 165.509 249.824C164.91 247.727 168.505 247.428 169.403 243.833C170.122 240.957 172.757 222.37 173.782 215.048L172.698 209.085L141.544 291.462L149.318 295.057C153.831 295.057 159.217 295.057 159.217 295.057L177.086 289.577L179.755 284.451Z" fill="#263238" stroke="#263238" stroke-miterlimit="10"/>
<path d="M175.395 281.876C175.395 281.876 162.814 280.977 158.021 280.977C153.228 280.977 146.039 281.576 143.343 286.069C140.647 290.562 139.748 304.641 143.343 312.43C146.938 320.218 157.123 322.315 162.814 322.016C168.506 321.717 179.289 313.329 180.787 309.135C182.285 304.941 180.487 295.355 178.99 290.263C177.492 285.171 175.395 281.876 175.395 281.876Z" fill="#DF7070" stroke="#263238" stroke-miterlimit="10"/>
<path d="M175.395 281.876C175.395 281.876 164.911 283.973 164.911 290.563C164.911 297.153 168.206 303.743 172.1 304.942C175.994 306.14 181.386 302.545 181.386 302.545C181.386 302.545 184.981 300.149 183.483 292.959C181.985 285.77 178.091 282.176 175.395 281.876Z" fill="#DF7070" stroke="#263238" stroke-miterlimit="10"/>
<path d="M182.584 269.594C182.584 269.594 185.879 264.502 186.778 263.303C187.677 262.105 190.972 258.81 192.769 255.814C194.566 252.819 196.663 249.823 197.262 254.017C197.861 258.211 193.667 262.704 192.769 263.902C191.87 265.1 188.276 269.893 188.276 269.893C188.276 269.893 182.285 273.189 182.584 269.594Z" fill="white" stroke="#263238" stroke-miterlimit="10"/>
<path d="M174.197 287.268C174.197 287.268 176.294 275.286 178.091 272.889C179.888 270.492 192.769 262.105 195.465 260.607C198.161 259.109 215.236 259.409 215.236 259.409C215.236 259.409 219.729 260.607 217.033 262.405C214.337 264.203 207.747 263.603 207.747 263.603L197.562 268.695L207.747 266.598L217.932 268.096C217.932 268.096 220.029 269.893 219.13 271.391C218.231 272.889 211.941 272.889 211.941 272.889H207.148L196.065 277.981L208.347 276.184C208.347 276.184 216.135 274.686 216.435 276.783C216.734 278.88 214.338 280.677 212.84 280.677C211.342 280.677 207.448 281.875 207.448 281.875L199.959 284.571L211.342 282.774C211.342 282.774 211.941 284.571 211.042 285.47C210.143 286.369 199.06 290.562 199.06 290.562C199.06 290.562 188.576 294.756 187.078 295.954C185.58 297.152 182.884 300.447 177.792 299.848C172.699 299.25 172.998 289.065 174.197 287.268Z" fill="white" stroke="#263238" stroke-miterlimit="10"/>
<path d="M199.958 284.572L196.064 286.07" stroke="#263238" stroke-miterlimit="10"/>
<path d="M197.562 268.696L193.368 270.193" stroke="#263238" stroke-miterlimit="10"/>
<path d="M326.02 209.084L357.174 291.462L329.315 304.343L314.038 274.986L326.02 209.084Z" fill="#DF7070" stroke="#263238" stroke-miterlimit="10"/>
<path d="M318.964 284.451C320.033 282.566 321.621 279.938 323.924 276.484C329.316 268.396 335.007 263.304 335.007 263.304C335.007 263.304 332.91 263.903 328.716 266.599C324.522 269.295 322.126 270.793 323.024 267.198C323.923 263.603 332.61 251.921 333.209 249.824C333.808 247.727 330.213 247.428 329.315 243.833C328.596 240.957 325.961 222.37 324.936 215.048L326.02 209.085L357.174 291.462L349.4 295.057C344.887 295.057 339.501 295.057 339.501 295.057L321.632 289.577L318.964 284.451Z" fill="#263238" stroke="#263238" stroke-miterlimit="10"/>
<path d="M230.812 171.94L245.49 197.402L233.209 215.375L221.826 183.023L230.812 171.94Z" fill="#DF7070" stroke="#263238" stroke-miterlimit="10"/>
<path d="M272.45 171.94L257.772 197.402L270.054 215.375L281.437 183.023L272.45 171.94Z" fill="#DF7070" stroke="#263238" stroke-miterlimit="10"/>
<path d="M323.324 281.876C323.324 281.876 335.905 280.977 340.698 280.977C345.491 280.977 352.68 281.576 355.376 286.069C358.072 290.562 358.971 304.641 355.376 312.43C351.781 320.218 341.597 322.315 335.905 322.016C330.213 321.717 319.43 313.329 317.932 309.135C316.434 304.941 318.232 295.355 319.729 290.263C321.227 285.171 323.324 281.876 323.324 281.876Z" fill="#DF7070" stroke="#263238" stroke-miterlimit="10"/>
<path d="M323.324 281.876C323.324 281.876 333.808 283.973 333.808 290.563C333.808 297.153 330.513 303.743 326.619 304.942C322.725 306.14 317.333 302.545 317.333 302.545C317.333 302.545 313.738 300.149 315.236 292.959C316.734 285.77 320.628 282.176 323.324 281.876Z" fill="#DF7070" stroke="#263238" stroke-miterlimit="10"/>
<path d="M316.135 269.594C316.135 269.594 312.84 264.502 311.941 263.303C311.042 262.105 307.747 258.81 305.95 255.814C304.153 252.819 302.056 249.823 301.457 254.017C300.858 258.211 305.052 262.704 305.95 263.902C306.849 265.1 310.443 269.893 310.443 269.893C310.443 269.893 316.435 273.189 316.135 269.594Z" fill="white" stroke="#263238" stroke-miterlimit="10"/>
<path d="M324.523 287.268C324.523 287.268 322.426 275.286 320.629 272.889C318.832 270.492 305.951 262.105 303.255 260.607C300.559 259.109 283.484 259.409 283.484 259.409C283.484 259.409 278.991 260.607 281.687 262.405C284.383 264.202 290.973 263.603 290.973 263.603L301.158 268.695L290.973 266.598L280.788 268.096C280.788 268.096 278.691 269.893 279.59 271.391C280.489 272.889 286.779 272.889 286.779 272.889H291.572L302.655 277.981L290.373 276.184C290.373 276.184 282.585 274.686 282.285 276.783C281.985 278.88 284.382 280.677 285.88 280.677C287.378 280.677 291.272 281.875 291.272 281.875L298.761 284.571L287.378 282.774C287.378 282.774 286.779 284.571 287.678 285.47C288.577 286.369 299.66 290.562 299.66 290.562C299.66 290.562 310.144 294.756 311.642 295.954C313.14 297.152 315.836 300.447 320.928 299.848C326.02 299.25 325.721 289.065 324.523 287.268Z" fill="white" stroke="#263238" stroke-miterlimit="10"/>
<path d="M298.761 284.572L302.655 286.07" stroke="#263238" stroke-miterlimit="10"/>
<path d="M301.157 268.696L305.351 270.193" stroke="#263238" stroke-miterlimit="10"/>
<path d="M201.735 388.766V394.308H261.69V398.339H226.422V401.362H275.293V396.323H267.232V393.3H300.484V385.743" fill="#263238"/>
<path d="M201.735 388.766V394.308H261.69V398.339H226.422V401.362H275.293V396.323H267.232V393.3H300.484V385.743" stroke="#263238" stroke-miterlimit="10"/>
<path d="M220.376 399.346H208.788V401.865H220.376V399.346Z" fill="#263238" stroke="#263238" stroke-miterlimit="10"/>
<path d="M215.825 412.121H207.91V417.926H215.825V412.121Z" stroke="#263238" stroke-miterlimit="10"/>
<path d="M238.516 418.453H233.239V421.619H238.516V418.453Z" stroke="#263238" stroke-miterlimit="10"/>
<path d="M261.733 416.87H253.29V419.508H261.733V416.87Z" stroke="#263238" stroke-miterlimit="10"/>
<path d="M248.014 431.645H242.737V434.811H248.014V431.645Z" stroke="#263238" stroke-miterlimit="10"/>
<path d="M268.593 423.202H264.899V425.313H268.593V423.202Z" stroke="#263238" stroke-miterlimit="10"/>
<path d="M289.172 411.066H271.759V416.343H289.172V411.066Z" stroke="#263238" stroke-miterlimit="10"/>
<path d="M230.073 430.59H221.63V434.811H230.073V430.59Z" stroke="#263238" stroke-miterlimit="10"/>
<path d="M250.652 445.365H246.431V447.476H250.652V445.365Z" stroke="#263238" stroke-miterlimit="10"/>
<path d="M245.568 405.896H228.438V408.919H245.568V405.896Z" fill="#263238" stroke="#263238" stroke-miterlimit="10"/>
<path d="M271.262 403.881H260.682V405.393H271.262V403.881Z" fill="#263238" stroke="#263238" stroke-miterlimit="10"/>
<path d="M289.4 395.819H278.82V397.834H289.4V395.819Z" fill="#263238" stroke="#263238" stroke-miterlimit="10"/>
<path d="M200.223 395.819H195.185V400.857H200.223V395.819Z" fill="#263238" stroke="#263238" stroke-miterlimit="10"/>
<path d="M299.98 399.346H294.942V404.384H299.98V399.346Z" fill="#263238" stroke="#263238" stroke-miterlimit="10"/>
<path d="M188.784 442.899L199 474" stroke="#263238" stroke-miterlimit="10"/>
<path d="M185.974 434.344L187.503 438.999" stroke="#263238" stroke-miterlimit="10"/>
<path d="M154 337L184.395 429.535" stroke="#263238" stroke-miterlimit="10"/>
<path d="M216 440L221 466" stroke="#263238" stroke-miterlimit="10"/>
<path d="M336.982 364.454L301 474" stroke="#263238" stroke-miterlimit="10"/>
<path d="M340.375 354.123L338.209 360.719" stroke="#263238" stroke-miterlimit="10"/>
<path d="M346 337L342.84 346.619" stroke="#263238" stroke-miterlimit="10"/>
<path d="M284 440L279 466" stroke="#263238" stroke-miterlimit="10"/>
</svg>
