<svg width="750" height="500" viewBox="0 0 750 500" fill="none" xmlns="http://www.w3.org/2000/svg">
<path d="M710.835 310.156C701.69 266.898 683.168 224.558 660.89 186.494C624.71 124.679 570.65 70.314 498.723 54.13C335.729 17.456 300.685 178.005 264.012 199.194C227.338 220.383 136.062 208.974 86.3488 276.616C36.6358 344.258 42.3398 451.019 42.3398 451.019H717.948C719.488 403.815 720.576 356.232 710.835 310.156Z" fill="#DF7070"/>
<path opacity="0.7" d="M710.835 310.156C701.69 266.898 683.168 224.558 660.89 186.494C624.71 124.679 570.65 70.314 498.723 54.13C335.729 17.456 300.685 178.005 264.012 199.194C227.338 220.383 136.062 208.974 86.3488 276.616C36.6358 344.258 42.3398 451.019 42.3398 451.019H717.948C719.488 403.815 720.576 356.232 710.835 310.156Z" fill="white"/>
<g opacity="0.15">
<path d="M326.217 450.395C326.157 450.069 320.171 417.255 317.689 372.032C315.4 330.325 314.966 271.058 329.431 216.862L328.021 214.463C319.993 244.539 311.298 296.316 315.466 372.188C317.957 417.545 323.965 450.472 324.025 450.798L326.217 450.395Z" fill="black"/>
<path d="M350.887 251.783C334.113 257.951 324.079 263.864 318.745 267.596C319.372 260.987 323.805 245.317 349.458 226.977C390.101 197.921 468.997 222.712 487.401 229.101C447.042 230.785 393.278 236.196 350.887 251.783Z" fill="black"/>
<path d="M351.574 253.113C395.067 237.162 450.591 231.941 491.137 230.44C491.244 230.48 491.316 230.507 491.316 230.507C491.316 230.507 446.245 271.581 391.473 280.664C336.701 289.747 318.741 270.95 318.741 270.95C318.741 270.95 318.657 270.45 318.653 269.515C323.644 265.906 333.886 259.6 351.574 253.113Z" fill="black"/>
<path d="M293.521 276.546C305.781 284.732 312.685 291.412 316.241 295.434C317.014 290.013 316.486 276.591 299.457 256.93C272.477 225.781 204.423 230.423 188.431 231.992C220.47 241.137 262.538 255.86 293.521 276.546Z" fill="black"/>
<path d="M292.713 277.48C260.916 256.289 217.401 241.379 185.177 232.344C185.083 232.356 185.021 232.364 185.021 232.364C185.021 232.364 213.23 274.006 255.398 291.868C297.565 309.73 315.598 298.125 315.598 298.125C315.598 298.125 315.762 297.741 315.946 296.992C312.639 293.133 305.644 286.098 292.713 277.48Z" fill="black"/>
<path d="M341.214 376.358C328.954 384.544 322.05 391.224 318.494 395.246C317.721 389.825 318.249 376.403 335.278 356.742C362.258 325.593 430.312 330.235 446.304 331.803C414.265 340.95 372.197 355.672 341.214 376.358Z" fill="black"/>
<path d="M342.022 377.292C373.818 356.101 417.334 341.191 449.558 332.156C449.652 332.168 449.714 332.176 449.714 332.176C449.714 332.176 421.505 373.818 379.337 391.68C337.169 409.542 319.137 397.937 319.137 397.937C319.137 397.937 318.973 397.553 318.789 396.804C322.096 392.945 329.091 385.91 342.022 377.292Z" fill="black"/>
<path d="M285.216 345.926C301.31 353.697 310.721 360.559 315.667 364.791C315.686 358.152 312.799 342.125 289.051 321.377C251.427 288.505 170.494 305.502 151.556 310.069C191.56 315.672 244.542 326.288 285.216 345.926Z" fill="black"/>
<path d="M284.402 347.183C242.667 327.076 187.915 316.477 147.707 311.039C147.596 311.069 147.523 311.089 147.523 311.089C147.523 311.089 188.384 356.353 242.013 370.722C295.642 385.091 315.345 368.131 315.345 368.131C315.345 368.131 315.477 367.642 315.572 366.712C310.955 362.633 301.376 355.36 284.402 347.183Z" fill="black"/>
<path d="M338.852 181.298C331.736 197.692 329.088 209.034 328.106 215.469C323.757 210.453 315.479 196.429 319.918 165.208C326.951 115.744 399.348 75.773 416.674 66.867C390.034 97.232 356.837 139.867 338.852 181.298Z" fill="black"/>
<path d="M340.289 181.719C358.771 139.239 393.32 95.462 420.222 65.089C420.325 65.039 420.394 65.006 420.394 65.006C420.394 65.006 419.001 125.969 387.764 171.869C356.527 217.769 330.529 217.788 330.529 217.788C330.529 217.788 330.11 217.504 329.43 216.861C330.266 210.758 332.773 198.995 340.289 181.719Z" fill="black"/>
</g>
<g opacity="0.15">
<path d="M530.173 450.557C530.137 450.362 526.565 430.781 525.084 403.794C523.718 378.906 523.459 343.538 532.091 311.197L531.25 309.765C526.459 327.713 521.271 358.611 523.758 403.887C525.245 430.954 528.83 450.602 528.866 450.797L530.173 450.557Z" fill="black"/>
<path d="M544.894 332.036C534.884 335.717 528.897 339.246 525.713 341.472C526.088 337.528 528.733 328.177 544.041 317.233C568.295 299.894 615.375 314.688 626.358 318.5C602.275 319.506 570.192 322.735 544.894 332.036Z" fill="black"/>
<path d="M545.305 332.83C571.26 323.311 604.393 320.196 628.589 319.3C628.653 319.324 628.696 319.34 628.696 319.34C628.696 319.34 601.8 343.851 569.115 349.271C536.43 354.691 525.712 343.474 525.712 343.474C525.712 343.474 525.662 343.176 525.66 342.618C528.638 340.465 534.749 336.701 545.305 332.83Z" fill="black"/>
<path d="M510.662 346.814C517.978 351.699 522.098 355.685 524.22 358.085C524.681 354.85 524.366 346.84 514.204 335.108C498.104 316.52 457.493 319.29 447.95 320.226C467.069 325.684 492.173 334.469 510.662 346.814Z" fill="black"/>
<path d="M510.18 347.371C491.206 334.725 465.238 325.828 446.008 320.436C445.952 320.443 445.915 320.448 445.915 320.448C445.915 320.448 462.749 345.298 487.912 355.957C513.075 366.616 523.836 359.691 523.836 359.691C523.836 359.691 523.934 359.462 524.044 359.015C522.07 356.712 517.896 352.514 510.18 347.371Z" fill="black"/>
<path d="M539.122 406.377C531.806 411.262 527.686 415.248 525.564 417.648C525.103 414.413 525.418 406.404 535.58 394.671C551.68 376.083 592.291 378.853 601.834 379.789C582.715 385.247 557.612 394.032 539.122 406.377Z" fill="black"/>
<path d="M539.605 406.934C558.579 394.288 584.547 385.391 603.777 379.999C603.833 380.006 603.87 380.011 603.87 380.011C603.87 380.011 587.036 404.861 561.873 415.52C536.71 426.179 525.949 419.254 525.949 419.254C525.949 419.254 525.851 419.025 525.742 418.578C527.714 416.275 531.888 412.077 539.605 406.934Z" fill="black"/>
<path d="M505.706 388.216C515.31 392.853 520.926 396.948 523.877 399.473C523.888 395.511 522.165 385.947 507.994 373.566C485.542 353.949 437.246 364.092 425.945 366.818C449.817 370.162 481.434 376.497 505.706 388.216Z" fill="black"/>
<path d="M505.22 388.966C480.315 376.967 447.642 370.643 423.648 367.397C423.582 367.415 423.538 367.427 423.538 367.427C423.538 367.427 447.922 394.438 479.924 403.013C511.927 411.588 523.685 401.466 523.685 401.466C523.685 401.466 523.764 401.174 523.821 400.619C521.066 398.186 515.349 393.846 505.22 388.966Z" fill="black"/>
<path d="M537.713 289.975C533.466 299.758 531.887 306.527 531.3 310.366C528.705 307.373 523.765 299.004 526.414 280.373C530.611 250.856 573.814 227.003 584.153 221.689C568.256 239.809 548.445 265.251 537.713 289.975Z" fill="black"/>
<path d="M538.57 290.226C549.599 264.876 570.216 238.752 586.27 220.628C586.332 220.598 586.373 220.579 586.373 220.579C586.373 220.579 585.542 256.959 566.901 284.349C548.261 311.74 532.747 311.751 532.747 311.751C532.747 311.751 532.497 311.581 532.091 311.198C532.589 307.555 534.085 300.536 538.57 290.226Z" fill="black"/>
</g>
<g opacity="0.15">
<path d="M653.933 450.616C653.906 450.469 651.204 435.654 650.083 415.236C649.05 396.406 648.853 369.647 655.385 345.179L654.748 344.096C651.123 357.675 647.198 381.052 649.079 415.307C650.204 435.785 652.916 450.651 652.943 450.799L653.933 450.616Z" fill="black"/>
<path d="M665.071 360.945C657.498 363.73 652.968 366.4 650.559 368.084C650.842 365.1 652.844 358.025 664.426 349.745C682.776 336.627 718.396 347.819 726.705 350.704C708.484 351.465 684.211 353.908 665.071 360.945Z" fill="black"/>
<path d="M665.382 361.546C685.019 354.344 710.087 351.987 728.393 351.309C728.441 351.327 728.474 351.339 728.474 351.339C728.474 351.339 708.125 369.884 683.396 373.984C658.667 378.085 650.558 369.598 650.558 369.598C650.558 369.598 650.52 369.372 650.518 368.95C652.772 367.322 657.396 364.474 665.382 361.546Z" fill="black"/>
<path d="M639.172 372.125C644.707 375.821 647.824 378.837 649.43 380.652C649.779 378.204 649.541 372.145 641.852 363.268C629.671 349.204 598.945 351.3 591.725 352.009C606.19 356.139 625.183 362.786 639.172 372.125Z" fill="black"/>
<path d="M638.807 372.547C624.451 362.98 604.804 356.248 590.256 352.169C590.214 352.174 590.185 352.178 590.185 352.178C590.185 352.178 602.921 370.979 621.959 379.043C640.997 387.108 649.138 381.868 649.138 381.868C649.138 381.868 649.212 381.694 649.295 381.356C647.803 379.614 644.645 376.438 638.807 372.547Z" fill="black"/>
<path d="M660.704 417.19C655.169 420.886 652.052 423.902 650.446 425.717C650.097 423.269 650.335 417.21 658.024 408.333C670.205 394.269 700.931 396.365 708.151 397.074C693.686 401.203 674.693 407.85 660.704 417.19Z" fill="black"/>
<path d="M661.069 417.611C675.425 408.044 695.072 401.312 709.62 397.233C709.662 397.238 709.691 397.242 709.691 397.242C709.691 397.242 696.955 416.043 677.917 424.107C658.879 432.172 650.738 426.932 650.738 426.932C650.738 426.932 650.664 426.758 650.581 426.42C652.073 424.678 655.231 421.502 661.069 417.611Z" fill="black"/>
<path d="M635.422 403.449C642.689 406.957 646.937 410.055 649.17 411.966C649.178 408.969 647.875 401.732 637.153 392.365C620.166 377.524 583.626 385.197 575.076 387.26C593.137 389.79 617.058 394.583 635.422 403.449Z" fill="black"/>
<path d="M635.055 404.017C616.212 394.939 591.492 390.154 573.339 387.698C573.289 387.711 573.256 387.72 573.256 387.72C573.256 387.72 591.704 408.156 615.917 414.644C640.13 421.131 649.026 413.474 649.026 413.474C649.026 413.474 649.086 413.253 649.129 412.833C647.043 410.992 642.718 407.709 635.055 404.017Z" fill="black"/>
<path d="M659.638 329.122C656.425 336.524 655.23 341.644 654.786 344.55C652.822 342.285 649.085 335.954 651.089 321.858C654.264 299.526 686.951 281.479 694.773 277.458C682.746 291.167 667.758 310.417 659.638 329.122Z" fill="black"/>
<path d="M660.287 329.312C668.631 310.133 684.23 290.368 696.376 276.655C696.423 276.632 696.454 276.618 696.454 276.618C696.454 276.618 695.825 304.142 681.722 324.865C667.619 345.588 656.074 345.337 656.074 345.337C656.074 345.337 655.692 345.468 655.386 345.178C655.761 342.423 656.893 337.112 660.287 329.312Z" fill="black"/>
</g>
<g opacity="0.15">
<path d="M99.2557 450.616C99.2827 450.469 101.985 435.654 103.106 415.236C104.139 396.406 104.335 369.647 97.8037 345.179L98.4407 344.096C102.066 357.675 105.991 381.052 104.11 415.307C102.985 435.785 100.273 450.651 100.246 450.799L99.2557 450.616Z" fill="black"/>
<path d="M88.1169 360.945C95.6899 363.73 100.22 366.4 102.629 368.084C102.346 365.1 100.344 358.025 88.7619 349.745C70.4119 336.627 34.7919 347.819 26.4829 350.704C44.7039 351.465 68.9779 353.908 88.1169 360.945Z" fill="black"/>
<path d="M87.8068 361.546C68.1698 354.344 43.1018 351.987 24.7958 351.309C24.7468 351.327 24.7148 351.339 24.7148 351.339C24.7148 351.339 45.0638 369.884 69.7928 373.984C94.5218 378.085 102.631 369.598 102.631 369.598C102.631 369.598 102.669 369.372 102.671 368.95C100.417 367.322 95.7928 364.474 87.8068 361.546Z" fill="black"/>
<path d="M114.017 372.125C108.482 375.821 105.365 378.837 103.759 380.652C103.41 378.204 103.648 372.145 111.337 363.268C123.518 349.204 154.244 351.3 161.464 352.009C146.999 356.139 128.006 362.786 114.017 372.125Z" fill="black"/>
<path d="M114.382 372.547C128.738 362.98 148.384 356.248 162.933 352.169C162.975 352.174 163.004 352.178 163.004 352.178C163.004 352.178 150.268 370.979 131.23 379.043C112.192 387.108 104.051 381.868 104.051 381.868C104.051 381.868 103.977 381.694 103.894 381.356C105.386 379.614 108.544 376.438 114.382 372.547Z" fill="black"/>
<path d="M92.4841 417.19C98.0191 420.886 101.136 423.902 102.742 425.717C103.091 423.269 102.853 417.21 95.1641 408.333C82.9831 394.269 52.2571 396.365 45.0371 397.074C59.5031 401.203 78.4961 407.85 92.4841 417.19Z" fill="black"/>
<path d="M92.1191 417.611C77.7631 408.044 58.1171 401.312 43.5681 397.233C43.5261 397.238 43.4971 397.242 43.4971 397.242C43.4971 397.242 56.2331 416.043 75.2711 424.107C94.3091 432.172 102.45 426.932 102.45 426.932C102.45 426.932 102.524 426.758 102.607 426.42C101.116 424.678 97.9581 421.502 92.1191 417.611Z" fill="black"/>
<path d="M117.767 403.449C110.501 406.957 106.252 410.055 104.019 411.966C104.011 408.969 105.314 401.732 116.036 392.365C133.023 377.524 169.563 385.197 178.113 387.26C160.051 389.79 136.13 394.583 117.767 403.449Z" fill="black"/>
<path d="M118.134 404.017C136.977 394.939 161.697 390.154 179.85 387.698C179.9 387.711 179.933 387.72 179.933 387.72C179.933 387.72 161.485 408.156 137.272 414.644C113.059 421.131 104.163 413.474 104.163 413.474C104.163 413.474 104.103 413.253 104.06 412.833C106.146 410.992 110.471 407.709 118.134 404.017Z" fill="black"/>
<path d="M93.551 329.122C96.764 336.524 97.959 341.644 98.403 344.55C100.366 342.285 104.104 335.954 102.1 321.858C98.925 299.526 66.238 281.479 58.416 277.458C70.443 291.167 85.431 310.417 93.551 329.122Z" fill="black"/>
<path d="M92.9019 329.312C84.5579 310.133 68.9589 290.368 56.8129 276.655C56.7659 276.632 56.7349 276.618 56.7349 276.618C56.7349 276.618 57.3639 304.142 71.4669 324.865C85.5699 345.588 97.3079 345.597 97.3079 345.597C97.3079 345.597 97.4969 345.469 97.8039 345.179C97.4269 342.423 96.2959 337.112 92.9019 329.312Z" fill="black"/>
</g>
<path d="M616.8 150.681H546.748V450.798H616.8V150.681Z" fill="#263238" stroke="#263238" stroke-miterlimit="10"/>
<path d="M638.185 150.681H568.133V450.798H638.185V150.681Z" fill="white" stroke="#263238" stroke-miterlimit="10"/>
<path d="M458.999 254.653H388.947V450.798H458.999V254.653Z" fill="#263238" stroke="#263238" stroke-miterlimit="10"/>
<path d="M480.383 254.653H410.331V450.798H480.383V254.653Z" fill="white" stroke="#263238" stroke-miterlimit="10"/>
<path d="M295.299 313.644H225.247V450.798H295.299V313.644Z" fill="#263238" stroke="#263238" stroke-miterlimit="10"/>
<path d="M316.683 313.644H246.631V450.798H316.683V313.644Z" fill="white" stroke="#263238" stroke-miterlimit="10"/>
<path d="M330.268 450.798V350.295" stroke="#263238" stroke-width="4" stroke-miterlimit="10"/>
<path d="M330.268 354.46L321.909 359.544L321.72 359.259L327.134 345.629C328.178 340.88 329.223 336.132 330.268 331.383C331.312 336.132 332.357 340.88 333.403 345.629L338.817 359.259L338.674 359.544L330.268 354.46Z" fill="#263238"/>
<path d="M352.867 450.798V350.295" stroke="#263238" stroke-width="4" stroke-miterlimit="10"/>
<path d="M352.867 354.46L344.508 359.544L344.319 359.259L349.733 345.629C350.777 340.88 351.822 336.132 352.867 331.383C353.911 336.132 354.956 340.88 356.001 345.629L361.415 359.259L361.272 359.544L352.867 354.46Z" fill="#263238"/>
<path d="M375.465 450.798V350.295" stroke="#263238" stroke-width="4" stroke-miterlimit="10"/>
<path d="M375.465 354.46L367.106 359.544L366.917 359.259L372.331 345.629C373.375 340.88 374.42 336.132 375.465 331.383C376.51 336.132 377.554 340.88 378.6 345.629L384.014 359.259L383.871 359.544L375.465 354.46Z" fill="#263238"/>
<path d="M398.063 450.798V350.295" stroke="white" stroke-width="4" stroke-miterlimit="10"/>
<path d="M398.063 354.46L389.704 359.544L389.515 359.259L394.929 345.629C395.973 340.88 397.018 336.132 398.063 331.383C399.107 336.132 400.152 340.88 401.197 345.629L406.611 359.259L406.468 359.544L398.063 354.46Z" fill="white"/>
<path d="M488.829 450.798V299.287" stroke="#263238" stroke-width="4" stroke-miterlimit="10"/>
<path d="M488.829 303.451L480.47 308.535L480.281 308.25L485.695 294.62C486.74 289.871 487.784 285.123 488.83 280.374C489.874 285.123 490.919 289.871 491.964 294.62L497.378 308.25L497.235 308.535L488.829 303.451Z" fill="#263238"/>
<path d="M511.427 450.798V299.287" stroke="#263238" stroke-width="4" stroke-miterlimit="10"/>
<path d="M511.427 303.451L503.068 308.535L502.879 308.25L508.293 294.62C509.337 289.871 510.382 285.123 511.427 280.374C512.471 285.123 513.516 289.871 514.562 294.62L519.976 308.25L519.833 308.535L511.427 303.451Z" fill="#263238"/>
<path d="M534.025 450.798V299.287" stroke="#263238" stroke-width="4" stroke-miterlimit="10"/>
<path d="M534.025 303.451L525.666 308.535L525.477 308.25L530.891 294.62C531.935 289.871 532.98 285.123 534.026 280.374C535.07 285.123 536.115 289.871 537.161 294.62L542.575 308.25L542.432 308.535L534.025 303.451Z" fill="#263238"/>
<path d="M556.623 450.798V299.287" stroke="white" stroke-width="4" stroke-miterlimit="10"/>
<path d="M556.623 303.451L548.264 308.535L548.075 308.25L553.489 294.62C554.533 289.871 555.578 285.123 556.623 280.374C557.668 285.123 558.712 289.871 559.758 294.62L565.172 308.25L565.029 308.535L556.623 303.451Z" fill="white"/>
<path d="M345.587 99.024C345.587 99.024 341.715 80.953 328.161 76.435C314.608 71.917 311.381 80.953 307.508 86.116C303.636 91.279 297.827 83.534 289.437 86.116C281.047 88.697 284.274 95.797 279.111 98.378C273.948 100.96 264.912 95.151 259.104 99.669C253.295 104.187 252.005 108.059 252.005 108.059H374.63C374.63 108.059 355.268 89.988 345.587 99.024Z" fill="white" stroke="#263238" stroke-miterlimit="10"/>
<path d="M565.628 192.745C565.628 192.745 561.756 174.674 548.202 170.156C534.649 165.638 531.422 174.674 527.549 179.837C523.677 185 517.868 177.255 509.478 179.837C501.088 182.418 504.315 189.518 499.152 192.099C493.989 194.68 484.953 188.872 479.145 193.39C473.336 197.908 472.046 201.78 472.046 201.78H594.671C594.671 201.78 575.309 183.709 565.628 192.745Z" fill="white" stroke="#263238" stroke-miterlimit="10"/>
<path d="M168.064 171.195C168.064 171.195 165.55 159.461 156.749 156.528C147.948 153.594 145.853 159.462 143.339 162.814C140.825 166.166 137.053 161.138 131.605 162.814C126.157 164.49 128.252 169.1 124.9 170.776C121.547 172.452 115.68 168.681 111.909 171.614C108.137 174.547 107.299 177.062 107.299 177.062H186.922C186.922 177.062 174.35 165.328 168.064 171.195Z" fill="white" stroke="#263238" stroke-miterlimit="10"/>
<path d="M114.469 405.391C114.469 405.391 110.009 406.748 107.1 406.361C104.191 405.973 101.671 405.973 101.089 408.494C100.507 411.015 101.089 413.536 100.507 415.087C99.9251 416.638 97.9861 418.771 98.3741 421.68C98.7621 424.589 99.7311 431.375 101.477 430.406C103.222 429.436 105.549 421.098 106.519 419.353C107.488 417.608 110.103 413.604 112.045 412.755C113.597 412.076 115.926 412.076 115.926 412.076L114.469 405.391Z" fill="white" stroke="#263238" stroke-miterlimit="10"/>
<path d="M102.634 420.03C102.634 420.03 103.992 416.731 104.671 411.977C105.029 409.473 105.736 407.568 106.411 406.276C103.802 405.989 101.624 406.173 101.089 408.492C100.507 411.013 101.089 413.534 100.507 415.085C99.9251 416.636 97.9861 418.769 98.3741 421.678C98.7621 424.587 99.7311 431.373 101.477 430.404C102.793 429.673 104.439 424.756 105.585 421.631L102.634 420.03Z" fill="#263238" stroke="#263238" stroke-miterlimit="10"/>
<path d="M163.722 340.819C163.528 325.306 157.905 321.04 157.905 321.04C130.758 324.53 125.522 316.386 125.522 316.386L122.226 318.907C116.603 324.918 113.888 333.45 112.918 343.146C111.949 352.841 123.777 385.224 123.777 385.224C123.777 385.224 118.735 394.919 114.857 402.482C110.979 410.045 112.918 426.915 111.56 431.374C110.203 435.834 106.712 438.549 107.488 442.427C108.264 446.305 108.07 449.796 110.978 450.183C113.887 450.571 118.153 451.347 119.316 450.183C120.479 449.02 118.153 447.274 117.377 443.978C116.601 440.682 116.02 435.64 116.02 435.64L131.145 406.554C131.145 406.554 161.007 391.235 161.783 389.684C162.558 388.133 163.916 356.332 163.722 340.819ZM142.198 384.836L139.483 347.218L141.81 347.024L146.464 382.703L142.198 384.836Z" fill="#263238" stroke="#263238" stroke-miterlimit="10"/>
<path d="M112.477 413.647C111.965 420.864 112.414 428.571 111.56 431.375C110.203 435.835 106.712 438.55 107.488 442.428C108.264 446.306 108.07 449.797 110.978 450.184C113.887 450.572 118.153 451.348 119.316 450.184C120.479 449.021 118.153 447.275 117.377 443.979C116.601 440.683 116.02 435.641 116.02 435.641L125.374 417.652C118.396 419.453 114.356 416.042 112.477 413.647Z" fill="white" stroke="#263238" stroke-miterlimit="10"/>
<path d="M119.316 450.184C120.479 449.021 118.153 447.275 117.377 443.979L111.172 444.367C111.172 444.367 109.892 440.326 109.016 436.6C107.926 438.513 107.061 440.295 107.487 442.428C108.263 446.306 108.069 449.797 110.977 450.184C113.887 450.571 118.153 451.347 119.316 450.184Z" fill="#263238" stroke="#263238" stroke-miterlimit="10"/>
<path d="M141.616 386.775L133.278 403.452" stroke="white" stroke-miterlimit="10"/>
<path d="M167.6 299.516C167.6 299.516 167.6 303.588 165.661 306.109C163.722 308.63 159.262 310.763 159.262 310.763L157.905 321.04C157.905 321.04 154.804 323.326 147.434 323.755C140.064 324.184 132.891 320.652 132.891 320.652L137.739 278.962C137.739 278.962 147.047 275.665 152.864 274.114C158.681 272.563 166.438 274.502 166.438 274.502C166.438 274.502 167.6 290.402 167.6 299.516Z" fill="white" stroke="#263238" stroke-miterlimit="10"/>
<path d="M166.436 274.502C166.436 274.502 158.68 272.563 152.862 274.114C147.045 275.665 137.737 278.962 137.737 278.962L136.948 285.75C140.981 288.415 147.303 291.209 155.771 290.791C160.186 290.573 164.003 289.129 167.21 287.166C166.872 280.457 166.436 274.502 166.436 274.502Z" stroke="#263238" stroke-miterlimit="10"/>
<path d="M164.189 274.242C164.189 274.242 186.734 271.847 191.243 271.283C195.752 270.719 201.67 269.592 201.67 269.592L211.348 274.125C211.348 274.125 212.097 277.201 210.407 279.596C208.716 281.991 172.08 292.982 172.08 292.982C172.08 292.982 170.953 333.281 170.953 335.959C170.953 338.636 171.094 339.059 169.403 340.468C167.712 341.877 158.412 345.963 158.412 345.963C158.412 345.963 163.062 327.927 164.33 319.895C165.598 311.863 166.444 285.232 165.88 280.582C165.316 275.933 164.189 274.242 164.189 274.242Z" fill="#DF7070" stroke="#263238" stroke-miterlimit="10"/>
<path d="M173.63 278.61L172.079 292.983L177.575 279.315" stroke="#263238" stroke-miterlimit="10"/>
<path d="M165.88 280.583C166.444 285.233 165.598 311.864 164.33 319.896C164.163 320.952 163.937 322.183 163.672 323.52L163.767 323.559C163.767 323.559 168.84 311.864 169.544 296.505C170.04 285.699 169.141 277.619 168.564 273.775C165.942 274.055 164.189 274.242 164.189 274.242C164.189 274.242 165.316 275.933 165.88 280.583Z" fill="#DF7070" stroke="#263238" stroke-miterlimit="10"/>
<path d="M148.831 280.189L150.921 271.438C150.921 271.438 149.223 270.524 147.133 269.348C145.043 268.173 140.733 263.601 142.823 255.634C144.913 247.667 150.006 246.491 150.006 246.491C150.006 246.491 157.189 242.965 163.981 245.185C170.773 247.405 171.556 251.324 171.818 252.368C172.079 253.413 171.034 255.764 171.557 256.156C172.079 256.548 177.173 258.638 176.781 259.813C176.389 260.988 174.691 263.078 174.691 263.078C174.691 263.078 174.169 270.914 173.124 271.959C172.079 273.004 166.463 273.265 166.463 273.265L161.761 283.061" fill="white"/>
<path d="M148.831 280.189L150.921 271.438C150.921 271.438 149.223 270.524 147.133 269.348C145.043 268.173 140.733 263.601 142.823 255.634C144.913 247.667 150.006 246.491 150.006 246.491C150.006 246.491 157.189 242.965 163.981 245.185C170.773 247.405 171.556 251.324 171.818 252.368C172.079 253.413 171.034 255.764 171.557 256.156C172.079 256.548 177.173 258.638 176.781 259.813C176.389 260.988 174.691 263.078 174.691 263.078C174.691 263.078 174.169 270.914 173.124 271.959C172.079 273.004 166.463 273.265 166.463 273.265L161.761 283.061" stroke="#263238" stroke-miterlimit="10"/>
<path d="M161.238 246.884C163.375 246.249 165.331 246.227 166.851 246.4C166.035 245.964 165.096 245.551 163.981 245.186C157.189 242.966 150.006 246.492 150.006 246.492C150.006 246.492 144.912 247.667 142.823 255.635C140.733 263.602 145.043 268.173 147.133 269.349C148.372 270.046 149.463 270.645 150.154 271.023C151.09 269.006 152.338 266.188 153.271 263.603C153.964 261.683 156.514 264.132 157.581 262.036C157.82 261.566 157.419 258.821 157.646 258.363C158.887 255.865 159.866 253.612 159.67 252.241C159.279 249.496 156.406 248.321 161.238 246.884Z" fill="#263238" stroke="#263238" stroke-miterlimit="10"/>
<path d="M156.014 264.255C156.014 264.255 153.141 260.076 150.79 262.165C148.439 264.255 150.529 268.826 154.969 268.304" fill="white"/>
<path d="M156.014 264.255C156.014 264.255 153.141 260.076 150.79 262.165C148.439 264.255 150.529 268.826 154.969 268.304" stroke="#263238" stroke-miterlimit="10"/>
<path d="M145.304 249.888C145.304 249.888 141.125 245.578 137.99 244.794C134.855 244.01 130.937 243.749 128.586 248.843C126.235 253.937 127.019 257.986 130.023 260.075C133.027 262.165 135.639 262.426 138.121 260.859C140.602 259.292 142.17 256.941 142.823 255.635C143.476 254.329 145.304 249.888 145.304 249.888Z" fill="#263238" stroke="#263238" stroke-miterlimit="10"/>
<path d="M169.075 256.223C169.075 257.125 168.695 257.856 168.226 257.856C167.757 257.856 167.377 257.125 167.377 256.223C167.377 255.321 167.757 254.59 168.226 254.59C168.695 254.59 169.075 255.321 169.075 256.223Z" fill="#263238"/>
<path d="M166.071 253.153C166.071 253.153 168.683 252.239 169.859 253.153" stroke="#263238" stroke-miterlimit="10"/>
<path d="M170.642 265.169C170.642 265.169 172.34 265.038 172.993 265.561" stroke="#263238" stroke-miterlimit="10"/>
<path d="M166.463 273.267L161.891 272.353L164.373 277.185L166.463 273.267Z" fill="#263238" stroke="#263238" stroke-miterlimit="10"/>
<path d="M150.397 274.119C150.397 274.119 124.658 281.841 124.064 283.227C123.47 284.613 119.114 314.114 118.916 315.895C118.718 317.677 111.986 327.18 112.976 330.348C113.966 333.516 121.292 342.227 125.449 344.801C129.607 347.375 132.379 348.563 132.379 348.563C132.379 348.563 139.111 327.576 143.071 314.31C147.031 301.046 150.397 274.119 150.397 274.119Z" fill="#DF7070" stroke="#263238" stroke-miterlimit="10"/>
<path d="M150.397 274.119C150.397 274.119 146.396 275.32 141.516 276.857C141.041 285.204 139.741 308.865 139.903 314.707C139.987 317.716 140.035 321.181 140.063 324.184C141.134 320.72 142.174 317.317 143.071 314.312C147.031 301.046 150.397 274.119 150.397 274.119Z" fill="#DF7070" stroke="#263238" stroke-miterlimit="10"/>
<path d="M200.965 278.328C197.583 273.537 196.893 263.51 194.201 259.024C191.509 254.537 188.144 253.615 188.144 253.615L186.734 253.23C186.734 253.23 185.067 253.615 183.786 253.23C182.504 252.845 179.171 251.692 179.171 251.692C179.171 251.692 176.735 252.077 175.838 251.436C174.941 250.795 177.505 250.667 176.223 250.282C174.941 249.897 169.813 249.641 168.788 248.615C167.763 247.59 173.147 247.333 173.147 247.333C173.147 247.333 176.352 246.307 178.787 246.564C181.223 246.82 188.145 247.846 189.427 247.974C190.709 248.102 194.683 251.692 194.683 251.692C194.683 251.692 205.066 262.46 207.63 266.434C210.194 270.408 211.219 273.1 211.348 274.125C211.476 275.151 211.476 275.792 211.476 275.792" fill="white"/>
<path d="M200.965 278.328C197.583 273.537 196.893 263.51 194.201 259.024C191.509 254.537 188.144 253.615 188.144 253.615L186.734 253.23C186.734 253.23 185.067 253.615 183.786 253.23C182.504 252.845 179.171 251.692 179.171 251.692C179.171 251.692 176.735 252.077 175.838 251.436C174.941 250.795 177.505 250.667 176.223 250.282C174.941 249.897 169.813 249.641 168.788 248.615C167.763 247.59 173.147 247.333 173.147 247.333C173.147 247.333 176.352 246.307 178.787 246.564C181.223 246.82 188.145 247.846 189.427 247.974C190.709 248.102 194.683 251.692 194.683 251.692C194.683 251.692 205.066 262.46 207.63 266.434C210.194 270.408 211.219 273.1 211.348 274.125C211.476 275.151 211.476 275.792 211.476 275.792" stroke="#263238" stroke-miterlimit="10"/>
<path d="M201.897 280.538C199.939 279.804 197.246 273.194 196.022 270.012C194.798 266.83 190.147 258.017 190.147 258.017L196.756 252.631L209.241 268.053C209.241 268.053 214.509 273.024 210.406 279.596" fill="#DF7070"/>
<path d="M201.897 280.538C199.939 279.804 197.246 273.194 196.022 270.012C194.798 266.83 190.147 258.017 190.147 258.017L196.756 252.631L209.241 268.053C209.241 268.053 214.509 273.024 210.406 279.596" stroke="#263238" stroke-miterlimit="10"/>
<path d="M175.326 247.206C175.326 247.206 173.916 248.36 177.377 248.744C180.838 249.129 181.736 249 181.736 249C181.736 249 183.531 251.307 186.864 251.948" stroke="#263238" stroke-miterlimit="10"/>
<path d="M98.3869 351.22L96.5781 358.325L98.6036 358.841L100.412 351.735L98.3869 351.22Z" fill="#263238" stroke="#263238" stroke-miterlimit="10"/>
<path d="M87.9699 346.543L85.8594 352.974L87.8451 353.626L89.9557 347.195L87.9699 346.543Z" fill="#263238" stroke="#263238" stroke-miterlimit="10"/>
<path d="M99.7479 352.081C99.5559 352.081 99.3599 352.042 99.1739 351.958L88.5689 347.255C87.8529 346.938 87.5299 346.1 87.8469 345.383C88.1639 344.667 89.0029 344.343 89.7189 344.661L100.324 349.363C101.04 349.68 101.363 350.518 101.046 351.235C100.811 351.766 100.292 352.081 99.7479 352.081Z" fill="#263238" stroke="#263238" stroke-miterlimit="10"/>
<path d="M76.827 345.621L108.426 361.492L104.26 398.813L99.226 399.68L64.874 380.945L76.827 345.621Z" fill="#B2B2B2" stroke="#263238" stroke-miterlimit="10"/>
<path d="M108.426 361.492L99.2261 399.68L104.26 398.813L108.426 361.492Z" fill="#B2B2B2" stroke="#263238" stroke-miterlimit="10"/>
<path d="M76.8271 345.621C76.8271 345.621 81.7361 372.407 87.9261 372.087C92.7231 371.839 108.427 361.491 108.427 361.491" stroke="#263238" stroke-miterlimit="10"/>
<path d="M85.1509 368.352L83.4429 374.329L86.0039 375.929L88.0319 369.74L85.1509 368.352Z" fill="white" stroke="#263238" stroke-miterlimit="10"/>
<path d="M100.313 342.809L98.2172 354.24C98.2172 354.24 96.8832 355.288 95.9312 355.002C94.9782 354.716 94.5972 353.097 94.5972 353.097C94.5972 353.097 89.3582 351.763 88.9772 349.287C88.5962 346.81 93.4792 339.654 93.4792 339.654L100.313 342.809Z" fill="white" stroke="#263238" stroke-miterlimit="10"/>
<path d="M124.064 283.227L102.087 309.956L92.979 339.655L100.895 343.146L113.372 317.678L131.587 301.839C131.587 301.839 133.369 298.671 131.983 295.107" fill="#DF7070"/>
<path d="M124.064 283.227L102.087 309.956L92.979 339.655L100.895 343.146L113.372 317.678L131.587 301.839C131.587 301.839 133.369 298.671 131.983 295.107" stroke="#263238" stroke-miterlimit="10"/>
<path d="M595.625 99.853H587.514V150.011H595.625V99.853Z" fill="#DF7070" stroke="#263238" stroke-miterlimit="10"/>
<path d="M574.809 99.166C564.967 99.166 557.239 96.114 551.837 90.094C542.055 79.19 543.73 62.622 543.806 61.922C543.971 60.4 545.257 59.246 546.788 59.246H573.334V65.246H552.77C551.032 65.246 549.651 66.715 549.775 68.449C550.139 73.51 551.556 80.812 556.325 86.111C560.539 90.793 566.758 93.166 574.809 93.166V99.166Z" fill="#DF7070" stroke="#263238" stroke-miterlimit="10"/>
<path d="M608.33 99.166C618.172 99.166 625.9 96.114 631.302 90.094C641.084 79.19 639.409 62.622 639.333 61.922C639.167 60.4 637.882 59.246 636.35 59.246H609.804V65.246H630.369C632.107 65.246 633.488 66.715 633.364 68.449C633 73.51 631.583 80.812 626.814 86.111C622.6 90.793 616.381 93.166 608.33 93.166V99.166Z" fill="#DF7070" stroke="#263238" stroke-miterlimit="10"/>
<path d="M591.505 110.177H591.296C578.933 110.177 568.91 100.155 568.91 87.791V53.398H613.891V87.791C613.891 100.154 603.868 110.177 591.505 110.177Z" fill="#DF7070" stroke="#263238" stroke-miterlimit="10"/>
<path d="M609.538 53.398V86.7C609.538 98.25 600.207 107.686 588.447 108.336C588.876 108.36 589.307 108.375 589.742 108.375C602.105 108.375 612.128 98.671 612.128 86.7V53.398H609.538Z" fill="#263238"/>
<path d="M573.391 53.398V86.508C573.391 97.991 581.659 107.374 592.08 108.02C591.7 108.044 591.318 108.058 590.933 108.058C579.978 108.058 571.097 98.41 571.097 86.508V53.398H573.391Z" fill="white"/>
<path d="M613.891 53.398H568.91V63.247H613.891V53.398Z" fill="#DF7070" stroke="#263238" stroke-miterlimit="10"/>
<path d="M596.057 134.372H587.385C586.209 134.372 585.255 133.418 585.255 132.242V123.19C585.255 122.014 586.209 121.06 587.385 121.06H596.057C597.233 121.06 598.187 122.014 598.187 123.19V132.242C598.187 133.418 597.233 134.372 596.057 134.372Z" fill="#DF7070" stroke="#263238" stroke-miterlimit="10"/>
<path d="M617.473 150.603C616.359 147.57 613.453 145.402 610.033 145.402H573.409C569.989 145.402 567.084 147.57 565.969 150.603H617.473Z" fill="#DF7070" stroke="#263238" stroke-miterlimit="10"/>
<path d="M576.888 58.302C576.888 57.252 576.036 56.4 574.986 56.4C573.936 56.4 573.083 57.251 573.083 58.302C573.083 59.353 573.935 60.204 574.986 60.204C576.037 60.204 576.888 59.353 576.888 58.302Z" fill="#DF7070" stroke="#263238" stroke-miterlimit="10"/>
<path d="M585.255 58.302C585.255 57.252 584.404 56.4 583.353 56.4C582.302 56.4 581.451 57.251 581.451 58.302C581.451 59.353 582.302 60.204 583.353 60.204C584.404 60.204 585.255 59.353 585.255 58.302Z" fill="#DF7070" stroke="#263238" stroke-miterlimit="10"/>
<path d="M593.623 58.302C593.623 57.252 592.771 56.4 591.721 56.4C590.671 56.4 589.819 57.251 589.819 58.302C589.819 59.353 590.67 60.204 591.721 60.204C592.772 60.204 593.623 59.353 593.623 58.302Z" fill="#DF7070" stroke="#263238" stroke-miterlimit="10"/>
<path d="M601.991 58.302C601.991 57.252 601.14 56.4 600.089 56.4C599.038 56.4 598.187 57.251 598.187 58.302C598.187 59.353 599.038 60.204 600.089 60.204C601.14 60.204 601.991 59.353 601.991 58.302Z" fill="#DF7070" stroke="#263238" stroke-miterlimit="10"/>
<path d="M610.358 58.302C610.358 57.252 609.506 56.4 608.456 56.4C607.406 56.4 606.554 57.251 606.554 58.302C606.554 59.353 607.405 60.204 608.456 60.204C609.507 60.204 610.358 59.353 610.358 58.302Z" fill="#DF7070" stroke="#263238" stroke-miterlimit="10"/>
<path d="M605.308 86.5276C607.296 78.7779 602.624 70.8843 594.875 68.8969C587.125 66.9095 579.232 71.5807 577.244 79.3304C575.257 87.0802 579.928 94.9737 587.678 96.9611C595.427 98.9486 603.321 94.2773 605.308 86.5276Z" fill="#263238" stroke="#263238" stroke-miterlimit="10"/>
<path d="M594.204 90.632H591.254V79.515C590.176 80.522 588.906 81.268 587.442 81.75V79.073C588.212 78.821 589.048 78.343 589.951 77.64C590.855 76.937 591.473 76.116 591.809 75.178H594.203L594.204 90.632Z" fill="white"/>
<path d="M591.979 26.708V44.138" stroke="#263238" stroke-miterlimit="10"/>
<path d="M517.177 79.724H534.607" stroke="#263238" stroke-miterlimit="10"/>
<path d="M555.526 114.725L558.199 112.052" stroke="#263238" stroke-miterlimit="10"/>
<path d="M545.874 124.377L552.93 117.321" stroke="#263238" stroke-miterlimit="10"/>
<path d="M637.977 119.911L630.118 112.052" stroke="#263238" stroke-miterlimit="10"/>
<path d="M642.443 124.377L640.194 122.128" stroke="#263238" stroke-miterlimit="10"/>
<path d="M555.911 48.739L558.199 51.027" stroke="#263238" stroke-miterlimit="10"/>
<path d="M545.874 38.702L553.541 46.369" stroke="#263238" stroke-miterlimit="10"/>
<path d="M642.443 38.702L630.118 51.027" stroke="#263238" stroke-miterlimit="10"/>
<path d="M661.205 79.724H664.604" stroke="#263238" stroke-miterlimit="10"/>
<path d="M647.174 79.724H657.819" stroke="#263238" stroke-miterlimit="10"/>
<path d="M705.724 450.798H726.671" stroke="#263238" stroke-miterlimit="10"/>
<path d="M86.3491 450.798H697.575" stroke="#263238" stroke-miterlimit="10"/>
<path d="M19.521 450.798H77.384" stroke="#263238" stroke-miterlimit="10"/>
</svg>
