<svg width="500" height="500" viewBox="0 0 500 500" fill="none" xmlns="http://www.w3.org/2000/svg">
<path d="M467.605 251.913C462.669 293.714 443.583 342.316 405.464 364.643C347.869 398.385 352.69 450.281 240.271 472.842C222.744 476.361 206.11 477.842 190.425 477.55C181.993 477.394 173.832 476.714 165.96 475.555C94.5118 465.119 46.4298 415.455 28.7898 355.505C5.57483 276.66 51.9278 225.042 82.6518 193.941C113.376 162.841 135.878 65.937 246.219 42.889C263.043 39.382 280.248 37.593 297.448 38.022C336.707 38.985 379.528 51.877 409.158 78.783C411.383 80.805 413.546 82.901 415.655 85.061C456.838 127.332 474.338 194.925 467.605 251.913Z" fill="#DF7070"/>
<path opacity="0.7" d="M467.605 251.913C462.669 293.714 443.583 342.316 405.464 364.643C347.869 398.385 352.69 450.281 240.271 472.842C222.744 476.361 206.11 477.842 190.425 477.55C181.993 477.394 173.832 476.714 165.96 475.555C94.5118 465.119 46.4298 415.455 28.7898 355.505C5.57483 276.66 51.9278 225.042 82.6518 193.941C113.376 162.841 135.878 65.937 246.219 42.889C263.043 39.382 280.248 37.593 297.448 38.022C336.707 38.985 379.528 51.877 409.158 78.783C411.383 80.805 413.546 82.901 415.655 85.061C456.838 127.332 474.338 194.925 467.605 251.913Z" fill="white"/>
<path d="M22.2569 265.784C25.3659 267.142 32.9709 266.971 32.9769 266.971C33.0559 266.969 31.3419 261.993 31.1979 261.691C29.5299 258.2 24.2529 252.436 19.9589 253.017C16.8659 253.435 15.1459 256.531 15.8439 259.443C16.5569 262.417 19.6089 264.626 22.2569 265.784Z" fill="#263238"/>
<path d="M24.8818 287.813C28.1068 288.283 34.8948 286.315 35.4338 286.156C36.5058 289.956 37.9128 293.768 39.5508 297.546C40.4838 299.708 41.4918 301.856 42.5288 303.997C41.9098 303.09 41.3498 302.284 41.2598 302.179C38.7278 299.253 32.1168 295.088 28.1288 296.782C25.2548 298.002 24.4138 301.441 25.8568 304.066C27.3288 306.747 30.8578 308.072 33.7158 308.489C36.6178 308.912 42.4378 307.35 43.9728 306.916C44.3788 307.733 44.7758 308.554 45.1858 309.369C47.1508 313.283 49.1288 317.179 50.9528 321.061C51.5958 322.428 52.1788 323.799 52.7678 325.168C52.2168 324.363 51.7468 323.689 51.6638 323.594C49.1318 320.669 42.5208 316.503 38.5328 318.197C35.6598 319.417 34.8178 322.857 36.2608 325.481C37.7348 328.162 41.2618 329.487 44.1218 329.903C46.8908 330.307 52.2758 328.913 54.1018 328.407C54.6618 329.827 55.2258 331.249 55.7048 332.65C56.0108 333.614 56.3718 334.522 56.6238 335.507C56.8948 336.478 57.1628 337.439 57.4278 338.39C57.8718 340.241 58.3418 342.148 58.7298 343.965C59.0088 345.227 59.2518 346.434 59.4998 347.65C58.8758 346.281 57.5968 343.627 57.4648 343.417C55.4068 340.141 49.5028 335.023 45.3038 336.092C42.2788 336.863 40.9258 340.136 41.9548 342.948C43.0048 345.82 46.2898 347.665 49.0528 348.51C52.0958 349.44 58.8318 348.59 59.6728 348.478C60.0768 350.491 60.4498 352.452 60.7728 354.309C61.4948 358.406 62.0398 362.079 62.4548 365.188H65.2948C64.7998 361.972 64.1528 358.14 63.2958 353.838C62.8948 351.792 62.4248 349.615 61.9208 347.383C62.4268 347.182 65.3008 346.02 67.8458 344.597C70.0628 346.999 75.7458 349.809 76.4818 350.167C75.7088 352.069 74.9378 353.911 74.1828 355.637C72.6118 359.253 71.1188 362.46 69.8018 365.189H72.8728C74.0048 362.674 75.2508 359.81 76.5478 356.637C77.3418 354.709 78.1518 352.633 78.9618 350.494C79.7768 350.664 86.4448 352.019 89.5538 351.317C92.3718 350.68 95.7858 349.085 97.0488 346.299C98.2838 343.571 97.1778 340.207 94.2178 339.213C90.1118 337.833 83.8418 342.498 81.5448 345.611C81.4088 345.794 80.1608 347.951 79.3968 349.325C79.7228 348.45 80.0498 347.602 80.3758 346.697C81.0318 344.911 81.6328 343.108 82.2868 341.172C82.5698 340.226 82.8558 339.27 83.1448 338.304C83.4508 337.352 83.6538 336.309 83.9168 335.303C84.4758 332.957 84.9268 330.554 85.3288 328.122C86.8948 328.692 92.4848 330.637 95.3808 330.433C98.2638 330.23 101.879 329.172 103.548 326.608C105.183 324.099 104.599 320.605 101.825 319.174C97.9738 317.188 91.0698 320.85 88.3278 323.579C88.1568 323.749 86.4098 325.928 85.4728 327.144C85.7028 325.681 85.9388 324.221 86.1238 322.733C86.6578 318.437 87.0628 314.072 87.4878 309.719C87.6168 308.385 87.7618 307.058 87.9018 305.73C88.4568 305.939 95.0508 308.394 98.2948 308.166C101.177 307.964 104.794 306.904 106.463 304.341C108.097 301.832 107.514 298.338 104.74 296.908C100.889 294.922 93.9858 298.583 91.2438 301.312C91.0378 301.517 88.5268 304.657 87.9278 305.487C88.2368 302.56 88.5728 299.646 89.0198 296.787C89.6308 292.842 90.4498 289.004 91.5168 285.345C91.7748 285.443 98.6458 288.036 101.968 287.803C104.851 287.6 108.467 286.541 110.136 283.978C111.77 281.469 111.188 277.976 108.413 276.544C104.562 274.558 97.6588 278.219 94.9158 280.948C94.7018 281.162 92.0018 284.542 91.5568 285.19C91.6208 284.973 91.6628 284.74 91.7298 284.524C92.9198 280.632 94.5598 277.011 96.2628 273.696C97.2488 271.768 98.2988 269.98 99.3578 268.263C100.589 268.877 106.242 271.622 109.254 271.743C112.142 271.858 115.852 271.203 117.792 268.838C119.693 266.523 119.497 262.987 116.896 261.26C113.286 258.863 106.023 261.744 102.997 264.156C102.833 264.287 101.308 265.806 100.213 266.927C100.703 266.159 101.195 265.358 101.679 264.633C103.491 261.903 105.319 259.516 106.955 257.413C107.895 256.226 108.768 255.171 109.596 254.192C111.117 254.166 117.248 253.979 119.928 252.721C122.543 251.492 125.535 249.201 126.168 246.209C126.787 243.279 124.983 240.23 121.881 239.896C117.573 239.432 112.454 245.335 110.88 248.87C110.744 249.176 109.166 254.197 109.245 254.197C109.245 254.197 109.319 254.196 109.337 254.196C108.521 255.122 107.658 256.123 106.737 257.238C105.051 259.308 103.167 261.662 101.288 264.363C99.4028 267.057 97.4318 270.038 95.6378 273.364C93.8348 276.696 92.1098 280.293 90.8118 284.229C90.7968 284.273 90.7878 284.322 90.7728 284.366C90.7958 283.097 90.7398 279.546 90.7038 279.274C90.2068 275.437 86.9908 268.315 82.7298 267.527C79.6598 266.96 77.0608 269.365 76.8158 272.35C76.5668 275.399 78.7768 278.449 80.9318 280.375C83.3618 282.546 90.1088 284.648 90.6468 284.815C89.4438 288.574 88.5158 292.53 87.7968 296.585C87.3828 298.903 87.0388 301.251 86.7228 303.609C86.7068 302.511 86.6848 301.529 86.6658 301.393C86.1678 297.555 82.9528 290.435 78.6918 289.647C75.6218 289.079 73.0228 291.485 72.7788 294.47C72.5288 297.518 74.7388 300.569 76.8938 302.494C79.0818 304.447 84.7968 306.356 86.3158 306.84C86.2038 307.746 86.0828 308.65 85.9748 309.556C85.4548 313.904 84.9558 318.245 84.3348 322.488C84.1168 323.984 83.8478 325.448 83.5828 326.914C83.5678 325.939 83.5468 325.118 83.5308 324.993C83.0338 321.156 79.8178 314.034 75.5578 313.246C72.4878 312.679 69.8878 315.083 69.6428 318.069C69.3928 321.116 71.6048 324.168 73.7598 326.093C75.8458 327.957 81.1068 329.766 82.9088 330.35C82.5928 331.844 82.2788 333.34 81.9048 334.774C81.6268 335.747 81.4278 336.702 81.0948 337.664C80.7858 338.622 80.4798 339.572 80.1758 340.512C79.5248 342.301 78.8638 344.151 78.1858 345.881C77.7228 347.087 77.2588 348.228 76.7958 349.379C77.0298 347.893 77.4278 344.974 77.4328 344.727C77.4918 342.157 76.5798 337.979 74.7628 335.041C74.7738 334.661 74.7518 334.283 74.6918 333.907C74.2168 330.95 71.4388 328.754 68.4218 329.557C64.2348 330.671 61.5798 338.021 61.3818 341.884C61.3698 342.112 61.5188 344.599 61.6388 346.167C61.4278 345.256 61.2338 344.37 61.0058 343.435C60.5668 341.583 60.0738 339.748 59.5518 337.771C59.2668 336.826 58.9768 335.871 58.6848 334.906C58.4158 333.944 58.0098 332.962 57.6728 331.978C56.8448 329.714 55.8958 327.459 54.8888 325.21C56.5108 324.822 62.2448 323.36 64.5478 321.592C66.8408 319.833 69.2718 316.954 69.2508 313.897C69.2288 310.902 66.8168 308.31 63.7128 308.647C59.4048 309.115 55.6668 315.977 54.8848 319.766C54.8358 320.003 54.5808 322.784 54.4698 324.315C53.8548 322.968 53.2458 321.619 52.5788 320.276C50.6538 316.398 48.5848 312.534 46.5368 308.669C45.9088 307.485 45.2978 306.299 44.6808 305.114C45.2598 304.981 52.1138 303.391 54.6938 301.412C56.9858 299.653 59.4178 296.775 59.3958 293.716C59.3748 290.722 56.9618 288.129 53.8578 288.467C49.5498 288.935 45.8118 295.796 45.0298 299.586C44.9718 299.871 44.6098 303.875 44.5678 304.897C43.2118 302.286 41.8838 299.67 40.6788 297.039C39.0128 293.411 37.5778 289.759 36.4498 286.118C36.7198 286.057 43.8808 284.429 46.5228 282.402C48.8158 280.643 51.2468 277.765 51.2248 274.706C51.2038 271.711 48.7908 269.12 45.6868 269.457C41.3788 269.924 37.6418 276.787 36.8598 280.576C36.7978 280.874 36.4118 285.181 36.3978 285.966C36.3308 285.75 36.2378 285.533 36.1738 285.316C35.0198 281.413 34.3898 277.488 33.9818 273.784C33.7398 271.633 33.6298 269.563 33.5678 267.546C34.9328 267.379 41.1618 266.55 43.7408 264.989C46.2138 263.492 48.9468 260.899 49.2608 257.856C49.5678 254.877 47.4538 252.035 44.3328 252.03C39.9998 252.022 35.5308 258.432 34.3368 262.113C34.2718 262.313 33.8368 264.421 33.5428 265.96C33.5288 265.05 33.4968 264.11 33.5008 263.238C33.5068 259.961 33.7138 256.961 33.9188 254.306C34.0478 252.797 34.1938 251.434 34.3448 250.162C35.5988 249.299 40.6088 245.763 42.1508 243.234C43.6548 240.766 44.8848 237.206 43.7618 234.361C42.6618 231.575 39.4768 230.028 36.7038 231.461C32.8548 233.451 31.8418 241.199 32.4788 245.016C32.5348 245.345 33.9878 250.404 34.0538 250.361C34.0538 250.361 34.1148 250.319 34.1288 250.309C33.9598 251.531 33.7928 252.843 33.6388 254.28C33.3748 256.936 33.1018 259.94 33.0248 263.229C32.9398 266.515 32.9388 270.09 33.2778 273.853C33.6128 277.625 34.1578 281.578 35.2458 285.577C35.2588 285.622 35.2768 285.668 35.2898 285.712C34.6078 284.641 32.6018 281.711 32.4218 281.503C29.8908 278.577 23.2798 274.411 19.2908 276.104C16.4178 277.325 15.5758 280.765 17.0188 283.389C18.4958 286.071 22.0228 287.396 24.8818 287.813Z" fill="#263238"/>
<path d="M99.1809 267.457C99.2479 267.499 100.564 262.402 100.611 262.071C101.144 258.239 99.9219 250.521 96.0209 248.636C93.2109 247.278 90.0689 248.911 89.0449 251.726C87.9989 254.6 89.3249 258.126 90.8949 260.552C92.7379 263.401 99.1759 267.453 99.1809 267.457Z" fill="#263238"/>
<path d="M89.3309 406.303H47.7619L42.5659 360.137H94.5279L89.3309 406.303Z" fill="white" stroke="#263238" stroke-miterlimit="10" stroke-linecap="round" stroke-linejoin="round"/>
<path d="M43.5181 368.595L44.0211 373.068H93.0721L93.5761 368.595H43.5181Z" fill="#263238"/>
<path d="M91.965 382.908L92.468 378.435H44.625L45.129 382.908H91.965Z" fill="#263238"/>
<path opacity="0.3" d="M78.8011 131.023L114.927 94.897C121.726 97.96 129.992 96.719 135.579 91.133C140.212 86.5 141.853 80.023 140.537 74.067L126.162 88.442C125.732 88.872 125.035 88.872 124.605 88.442L112.142 75.979C111.712 75.549 111.712 74.852 112.142 74.422L126.517 60.047C120.561 58.731 114.084 60.372 109.451 65.005C103.865 70.591 102.624 78.857 105.687 85.657L69.5601 121.783C62.7601 118.72 54.4941 119.961 48.9081 125.547C44.2751 130.18 42.6341 136.657 43.9501 142.613L58.3251 128.238C58.7551 127.808 59.4521 127.808 59.8821 128.238L72.3471 140.7C72.7771 141.13 72.7771 141.827 72.3471 142.257L57.9721 156.632C63.9281 157.948 70.4051 156.307 75.0381 151.674C80.6231 146.089 81.8641 137.823 78.8011 131.023Z" stroke="black" stroke-miterlimit="10" stroke-linecap="round" stroke-linejoin="round"/>
<path opacity="0.3" d="M150.572 50.278L139.57 46.671L130.945 54.396L133.322 65.728L144.324 69.335L152.949 61.61L150.572 50.278ZM142.887 62.488L138.532 61.06L137.591 56.574L141.005 53.516L145.36 54.944L146.301 59.43L142.887 62.488Z" stroke="black" stroke-miterlimit="10" stroke-linecap="round" stroke-linejoin="round"/>
<path opacity="0.3" d="M397.778 294.383L361.652 330.509C354.853 327.445 346.586 328.687 341 334.273C336.367 338.906 334.726 345.383 336.042 351.339L350.417 336.964C350.847 336.534 351.544 336.534 351.974 336.964L364.437 349.427C364.867 349.857 364.867 350.554 364.437 350.984L350.062 365.359C356.018 366.675 362.495 365.034 367.128 360.401C372.714 354.815 373.955 346.549 370.892 339.749L407.018 303.623C413.817 306.687 422.084 305.445 427.67 299.859C432.303 295.226 433.944 288.749 432.628 282.793L418.253 297.168C417.823 297.598 417.126 297.598 416.696 297.168L404.233 284.705C403.803 284.275 403.803 283.578 404.233 283.148L418.608 268.773C412.652 267.457 406.175 269.098 401.542 273.731C395.956 279.318 394.714 287.584 397.778 294.383Z" stroke="black" stroke-miterlimit="10" stroke-linecap="round" stroke-linejoin="round"/>
<path opacity="0.3" d="M326.007 375.129L337.009 378.736L345.634 371.011L343.257 359.679L332.255 356.072L323.63 363.797L326.007 375.129ZM333.691 362.918L338.046 364.346L338.987 368.832L335.573 371.89L331.218 370.462L330.277 365.976L333.691 362.918Z" stroke="black" stroke-miterlimit="10" stroke-linecap="round" stroke-linejoin="round"/>
<path opacity="0.3" d="M378.253 131.023L414.379 94.897C421.178 97.96 429.444 96.719 435.03 91.133C439.663 86.5 441.304 80.023 439.988 74.067L425.613 88.442C425.183 88.872 424.486 88.872 424.056 88.442L411.593 75.979C411.163 75.549 411.163 74.852 411.593 74.422L425.968 60.047C420.012 58.731 413.535 60.372 408.902 65.005C403.316 70.591 402.075 78.857 405.138 85.657L369.012 121.783C362.213 118.72 353.946 119.961 348.36 125.547C343.727 130.18 342.086 136.657 343.402 142.613L357.777 128.238C358.207 127.808 358.904 127.808 359.334 128.238L371.797 140.701C372.227 141.131 372.227 141.828 371.797 142.258L357.422 156.633C363.378 157.949 369.855 156.308 374.488 151.675C380.076 146.089 381.317 137.823 378.253 131.023Z" stroke="black" stroke-miterlimit="10" stroke-linecap="round" stroke-linejoin="round"/>
<path opacity="0.3" d="M450.024 50.278L439.022 46.671L430.397 54.396L432.774 65.728L443.776 69.335L452.401 61.61L450.024 50.278ZM442.34 62.488L437.985 61.06L437.044 56.574L440.458 53.516L444.813 54.944L445.754 59.43L442.34 62.488Z" stroke="black" stroke-miterlimit="10" stroke-linecap="round" stroke-linejoin="round"/>
<path opacity="0.3" d="M469.883 133.683L458.881 130.075L450.256 137.8L452.633 149.132L463.635 152.739L472.26 145.014L469.883 133.683ZM462.198 145.893L457.843 144.465L456.902 139.979L460.316 136.921L464.671 138.349L465.612 142.835L462.198 145.893Z" stroke="black" stroke-miterlimit="10" stroke-linecap="round" stroke-linejoin="round"/>
<path opacity="0.3" d="M219.674 82.6L208.672 78.992L200.047 86.717L202.424 98.049L213.426 101.656L222.051 93.931L219.674 82.6ZM211.99 94.811L207.635 93.383L206.694 88.897L210.108 85.839L214.463 87.267L215.404 91.753L211.99 94.811Z" stroke="black" stroke-miterlimit="10" stroke-linecap="round" stroke-linejoin="round"/>
<path opacity="0.3" d="M199.816 342.745L188.814 339.138L180.189 346.863L182.566 358.195L193.568 361.803L202.193 354.078L199.816 342.745ZM192.132 354.956L187.777 353.528L186.836 349.042L190.25 345.984L194.605 347.412L195.546 351.898L192.132 354.956Z" stroke="black" stroke-miterlimit="10" stroke-linecap="round" stroke-linejoin="round"/>
<path opacity="0.3" d="M60.1451 202.413L49.1431 198.806L40.5181 206.531L42.8951 217.863L53.8971 221.47L62.5221 213.745L60.1451 202.413ZM52.4611 214.623L48.1061 213.195L47.1651 208.709L50.5791 205.651L54.9341 207.079L55.8751 211.565L52.4611 214.623Z" stroke="black" stroke-miterlimit="10" stroke-linecap="round" stroke-linejoin="round"/>
<path opacity="0.3" d="M138.629 352.688L174.755 316.562C181.554 319.626 189.821 318.384 195.407 312.798C200.04 308.165 201.681 301.688 200.365 295.732L185.99 310.107C185.56 310.537 184.863 310.537 184.433 310.107L171.97 297.644C171.54 297.214 171.54 296.517 171.97 296.087L186.345 281.712C180.389 280.396 173.912 282.037 169.279 286.67C163.693 292.256 162.452 300.522 165.515 307.322L129.389 343.448C122.59 340.384 114.324 341.626 108.737 347.212C104.104 351.845 102.463 358.322 103.779 364.278L118.154 349.903C118.584 349.473 119.281 349.473 119.711 349.903L132.174 362.366C132.604 362.796 132.604 363.493 132.174 363.923L117.799 378.298C123.755 379.614 130.232 377.973 134.865 373.34C140.451 367.754 141.692 359.487 138.629 352.688Z" stroke="black" stroke-miterlimit="10" stroke-linecap="round" stroke-linejoin="round"/>
<path opacity="0.3" d="M210.399 271.942L199.397 268.335L190.772 276.06L193.149 287.392L204.151 291L212.776 283.275L210.399 271.942ZM202.715 284.153L198.36 282.725L197.419 278.239L200.833 275.181L205.188 276.609L206.129 281.095L202.715 284.153Z" stroke="black" stroke-miterlimit="10" stroke-linecap="round" stroke-linejoin="round"/>
<path d="M259.63 295.886H232.004V407.343H259.63V295.886Z" fill="#263238" stroke="#263238" stroke-miterlimit="10" stroke-linecap="round" stroke-linejoin="round"/>
<path d="M427.173 112.029H78.5107V323.513H427.173V112.029Z" fill="#263238" stroke="#263238" stroke-miterlimit="10" stroke-linecap="round" stroke-linejoin="round"/>
<path d="M420.149 112.029H71.4868V323.513H420.149V112.029Z" fill="#DF7070" stroke="#263238" stroke-miterlimit="10" stroke-linecap="round" stroke-linejoin="round"/>
<path d="M407.584 119.65H84.0508V315.892H407.584V119.65Z" fill="white" stroke="#263238" stroke-miterlimit="10" stroke-linecap="round" stroke-linejoin="round"/>
<path d="M407.584 304.073H84.0508V315.891H407.584V304.073Z" fill="white" stroke="#263238" stroke-miterlimit="10" stroke-linecap="round" stroke-linejoin="round"/>
<path d="M247.326 394.84L144.898 401.459V408.128H346.737V401.459L247.326 394.84Z" fill="#263238" stroke="#263238" stroke-miterlimit="10" stroke-linecap="round" stroke-linejoin="round"/>
<path d="M407.584 119.65H84.0508V315.892H407.584V119.65Z" fill="white" stroke="#263238" stroke-miterlimit="10" stroke-linecap="round" stroke-linejoin="round"/>
<path d="M462.874 406.303H21.936" stroke="#263238" stroke-miterlimit="10" stroke-linecap="round" stroke-linejoin="round"/>
<path d="M485.768 406.303H473.897" stroke="#263238" stroke-miterlimit="10" stroke-linecap="round" stroke-linejoin="round"/>
<path d="M398.33 282.825C398.33 282.825 399.995 341.802 400.83 352.101C401.665 362.4 404.17 389.401 404.727 394.411C405.284 399.421 404.17 413.618 404.17 413.618C402.778 415.01 402.778 415.01 402.778 415.01L403.891 421.969C403.891 421.969 394.984 427.536 390.53 429.206C386.076 430.876 391.643 433.103 395.54 433.66C399.437 434.217 402.499 434.217 406.953 433.103C411.407 431.99 416.974 430.041 418.922 429.763C420.87 429.485 421.984 426.979 421.984 423.918C421.984 420.856 421.706 420.578 421.984 419.186C422.262 417.794 420.592 411.949 420.314 410.557C420.036 409.165 424.211 377.711 423.376 367.69C422.541 357.669 422.263 344.03 422.263 342.638C422.263 341.246 421.706 326.772 421.706 326.772C421.706 326.772 426.438 358.783 426.995 359.896C427.552 361.009 436.737 407.495 437.016 409.722C437.294 411.949 436.181 414.454 436.459 416.124C436.737 417.794 438.129 422.805 438.129 422.805C438.129 422.805 437.294 430.321 434.789 433.661C432.284 437.001 431.727 439.785 433.119 440.898C434.511 442.012 437.573 442.012 441.191 441.176C444.81 440.341 444.81 440.898 448.15 438.114C451.49 435.33 452.604 427.258 452.604 426.423C452.604 425.588 453.996 422.804 453.996 419.742C453.996 416.68 453.996 418.072 452.883 413.618C451.77 409.164 452.048 391.906 451.77 381.885C451.492 371.864 448.151 351.822 448.151 347.925C448.151 344.028 446.481 285.852 446.481 285.852C446.481 285.852 419.769 293.994 398.33 282.825Z" fill="#263238" stroke="#263238" stroke-miterlimit="10" stroke-linecap="round" stroke-linejoin="round"/>
<path d="M410.728 424.349C406.283 424.147 403.892 421.969 403.892 421.969C403.892 421.969 394.984 427.536 390.531 429.206C386.077 430.876 391.644 433.103 395.541 433.66C399.438 434.217 402.5 434.217 406.954 433.103C411.408 431.99 416.975 430.041 418.923 429.763C420.871 429.485 421.985 426.979 421.985 423.918C421.985 422.633 421.936 421.84 421.9 421.248C418.818 422.549 413.694 424.483 410.728 424.349Z" fill="white" stroke="#263238" stroke-miterlimit="10" stroke-linecap="round" stroke-linejoin="round"/>
<path d="M417.799 426.571C412.748 426.975 406.954 433.103 399.212 432.228C394.033 431.643 390.909 430.486 389.403 429.784C387.306 431.353 392.079 433.166 395.541 433.66C399.438 434.217 402.5 434.217 406.954 433.103C411.408 431.99 416.975 430.041 418.923 429.763C420.334 429.561 421.3 428.183 421.729 426.28C420.822 426.339 419.56 426.43 417.799 426.571Z" fill="white" stroke="#263238" stroke-miterlimit="10" stroke-linecap="round" stroke-linejoin="round"/>
<path d="M446.891 426.369C441.178 426.316 438.13 422.804 438.13 422.804C438.13 422.804 437.295 430.32 434.79 433.66C432.285 437 431.728 439.784 433.12 440.897C434.512 442.011 437.574 442.011 441.192 441.175C444.811 440.34 444.811 440.897 448.151 438.113C451.491 435.329 452.605 427.257 452.605 426.422C452.605 426.172 452.735 425.732 452.91 425.179C451.396 425.827 449.363 426.392 446.891 426.369Z" fill="white" stroke="#263238" stroke-miterlimit="10" stroke-linecap="round" stroke-linejoin="round"/>
<path d="M448.151 438.113C449.635 436.877 450.677 434.597 451.38 432.372C451.365 432.393 451.351 432.409 451.336 432.43C449.518 435.056 447.093 438.087 441.033 439.501C436.719 440.508 433.745 439.571 432.383 438.947C432.346 439.799 432.588 440.472 433.12 440.897C434.512 442.011 437.574 442.011 441.192 441.175C444.81 440.34 444.81 440.897 448.151 438.113Z" fill="white" stroke="#263238" stroke-miterlimit="10" stroke-linecap="round" stroke-linejoin="round"/>
<path d="M397.694 281.06C397.694 281.06 396.886 284.94 398.502 286.88C400.119 288.82 406.585 293.023 421.943 293.185C437.301 293.347 443.767 289.952 446.031 288.497C448.294 287.042 447.324 280.576 447.324 280.576C447.324 280.576 436.654 285.426 424.368 285.911C412.081 286.395 397.694 281.06 397.694 281.06Z" fill="#DF7070" stroke="#263238" stroke-miterlimit="10" stroke-linecap="round" stroke-linejoin="round"/>
<path d="M410.996 210.137L396.89 202.796C396.89 202.796 379.618 187.682 371.125 182.069C362.633 176.455 355.436 178.327 354.86 185.236C354.284 192.145 383.504 215.031 388.829 219.349C394.155 223.667 395.306 225.826 395.306 225.826C395.306 225.826 396.026 264.401 396.314 270.591C396.602 276.78 396.314 280.955 398.329 282.826C400.344 284.697 409.7 290.455 422.798 289.735C435.896 289.015 441.798 287.72 444.245 285.705C446.692 283.69 448.131 281.963 448.131 278.508C448.131 275.053 451.873 228.994 451.873 228.994C451.873 228.994 477.782 211.29 484.403 205.388C491.024 199.487 491.456 191.138 487.138 190.275C482.82 189.411 471.881 194.737 467.562 197.472C463.244 200.207 449.426 204.525 444.676 205.82C439.926 207.115 435.176 208.555 435.176 208.555C435.176 208.555 423.231 211.864 410.996 210.137Z" fill="#DF7070" stroke="#263238" stroke-miterlimit="10" stroke-linecap="round" stroke-linejoin="round"/>
<path d="M395.307 225.826L390.933 209.977" stroke="#263238" stroke-miterlimit="10" stroke-linecap="round" stroke-linejoin="round"/>
<path d="M393.425 220.155L386.778 205.822" stroke="#263238" stroke-miterlimit="10" stroke-linecap="round" stroke-linejoin="round"/>
<path d="M451.875 228.993L455.534 215.377" stroke="#263238" stroke-miterlimit="10" stroke-linecap="round" stroke-linejoin="round"/>
<path d="M453.041 225.556L458.027 216.624" stroke="#263238" stroke-miterlimit="10" stroke-linecap="round" stroke-linejoin="round"/>
<path d="M376.808 190.866L367.668 195.852" stroke="#263238" stroke-miterlimit="10" stroke-linecap="round" stroke-linejoin="round"/>
<path d="M469.036 202.706L473.398 206.238" stroke="#263238" stroke-miterlimit="10" stroke-linecap="round" stroke-linejoin="round"/>
<path d="M411.716 226.978L408.118 250.227C408.038 250.742 408.391 251.224 408.907 251.303C409.424 251.383 409.907 251.026 409.983 250.508L413.299 227.985L411.716 226.978Z" fill="white" stroke="#263238" stroke-miterlimit="10" stroke-linecap="round" stroke-linejoin="round"/>
<path d="M425.678 227.841L423.766 250.649C423.712 251.296 424.246 251.84 424.894 251.796C425.425 251.761 425.848 251.337 425.882 250.806L427.405 227.409L425.678 227.841Z" fill="white" stroke="#263238" stroke-miterlimit="10" stroke-linecap="round" stroke-linejoin="round"/>
<path d="M410.133 209.129C410.133 209.129 404.951 214.887 404.519 217.19C404.087 219.493 408.117 222.372 408.117 222.372C408.117 222.372 406.102 222.948 407.541 224.243C408.98 225.538 417.329 232.016 419.776 232.016C422.223 232.016 425.246 228.13 432.73 226.402C440.215 224.675 445.54 216.902 444.965 213.304C444.389 209.706 441.223 210.425 441.223 210.425C441.223 210.425 442.662 207.258 440.359 205.819C438.056 204.38 432.73 204.38 430.139 204.668C427.549 204.955 416.61 205.531 410.133 209.129Z" fill="#DF7070" stroke="#263238" stroke-miterlimit="10" stroke-linecap="round" stroke-linejoin="round"/>
<path d="M431.854 223.013C430.27 224.286 428.988 225.107 428.988 225.107" stroke="#263238" stroke-miterlimit="10" stroke-linecap="round" stroke-linejoin="round"/>
<path d="M441.223 210.425C441.223 210.425 437.769 217.046 435.178 219.925" stroke="#263238" stroke-miterlimit="10" stroke-linecap="round" stroke-linejoin="round"/>
<path d="M408.118 222.372L411.716 224.387" stroke="#263238" stroke-miterlimit="10" stroke-linecap="round" stroke-linejoin="round"/>
<path d="M357.883 191.281C356.3 189.842 352.27 185.811 355.436 180.917C358.603 176.023 363.497 177.75 367.527 177.75C371.557 177.75 400.633 184.803 400.633 184.803C400.633 184.803 406.822 174.152 408.118 172.28C409.414 170.409 414.451 170.265 414.451 170.265C414.451 170.265 415.602 170.697 415.027 172.136C414.451 173.575 413.444 172.856 413.156 176.166C412.868 179.477 411.285 191.28 408.55 192.719C405.815 194.158 398.618 192.431 398.618 192.431L365.944 194.014" fill="#BDBDBD"/>
<path d="M357.883 191.281C356.3 189.842 352.27 185.811 355.436 180.917C358.603 176.023 363.497 177.75 367.527 177.75C371.557 177.75 400.633 184.803 400.633 184.803C400.633 184.803 406.822 174.152 408.118 172.28C409.414 170.409 414.451 170.265 414.451 170.265C414.451 170.265 415.602 170.697 415.027 172.136C414.451 173.575 413.444 172.856 413.156 176.166C412.868 179.477 411.285 191.28 408.55 192.719C405.815 194.158 398.618 192.431 398.618 192.431L365.944 194.014" stroke="#263238" stroke-miterlimit="10" stroke-linecap="round" stroke-linejoin="round"/>
<path d="M365.944 194.016L380.004 193.335C378.668 192.122 377.459 190.336 377.459 187.827C377.459 184.503 378.87 181.743 380.023 180.038C374.22 178.773 369.061 177.752 367.528 177.752C363.498 177.752 358.604 176.025 355.437 180.919C352.27 185.813 356.301 189.843 357.884 191.283" fill="#DF7070"/>
<path d="M365.944 194.016L380.004 193.335C378.668 192.122 377.459 190.336 377.459 187.827C377.459 184.503 378.87 181.743 380.023 180.038C374.22 178.773 369.061 177.752 367.528 177.752C363.498 177.752 358.604 176.025 355.437 180.919C352.27 185.813 356.301 189.843 357.884 191.283" stroke="#263238" stroke-miterlimit="10" stroke-linecap="round" stroke-linejoin="round"/>
<path d="M412.724 171.274C412.724 171.274 406.679 183.221 406.966 184.66C407.254 186.099 407.974 187.827 407.974 188.402C407.974 188.978 404.807 196.319 405.383 198.334C405.959 200.349 408.406 209.705 410.709 213.016C413.012 216.327 414.595 216.327 414.595 216.327C414.595 216.327 413.444 224.244 414.307 226.547C415.171 228.85 418.049 232.592 419.777 232.017C421.504 231.441 431.004 220.358 431.868 217.048C432.732 213.737 433.739 202.366 433.739 202.366C433.739 202.366 435.466 199.199 436.474 197.76C437.482 196.321 441.368 191.858 441.656 184.374C441.944 176.889 434.747 169.98 428.27 168.109C421.792 166.236 415.027 169.978 412.724 171.274Z" fill="#BDBDBD" stroke="#263238" stroke-miterlimit="10" stroke-linecap="round" stroke-linejoin="round"/>
<path d="M411.572 189.842C411.572 189.842 408.405 196.895 408.981 197.183C409.557 197.471 411.284 198.91 414.019 198.191C416.754 197.472 416.754 196.032 416.754 196.032" stroke="#263238" stroke-miterlimit="10" stroke-linecap="round" stroke-linejoin="round"/>
<path d="M414.371 204.809C414.766 205.849 414.574 206.887 413.943 207.127C413.311 207.367 412.479 206.718 412.084 205.678C411.689 204.638 411.88 203.6 412.512 203.36C413.144 203.119 413.976 203.768 414.371 204.809Z" fill="#263238"/>
<path d="M414.595 216.326C414.595 216.326 416.754 216.038 418.481 215.606C420.208 215.174 427.117 209.417 427.117 209.417L414.019 224.53L414.595 216.326Z" fill="#263238" stroke="#263238" stroke-miterlimit="10" stroke-linecap="round" stroke-linejoin="round"/>
<path d="M418.913 183.652C418.913 183.652 422.655 181.349 424.671 185.811" stroke="#263238" stroke-miterlimit="10" stroke-linecap="round" stroke-linejoin="round"/>
<path d="M412.868 183.796C412.868 183.796 410.709 182.213 408.838 184.372" stroke="#263238" stroke-miterlimit="10" stroke-linecap="round" stroke-linejoin="round"/>
<path d="M421.216 190.346C421.216 191.181 420.797 191.857 420.28 191.857C419.763 191.857 419.344 191.18 419.344 190.346C419.344 189.512 419.763 188.835 420.28 188.835C420.797 188.834 421.216 189.511 421.216 190.346Z" fill="#263238"/>
<path d="M410.053 190.952C410.526 190.952 410.909 190.333 410.909 189.569C410.909 188.805 410.526 188.186 410.053 188.186C409.58 188.186 409.197 188.805 409.197 189.569C409.197 190.333 409.58 190.952 410.053 190.952Z" fill="#263238"/>
<path d="M432.155 200.925C432.155 200.925 432.979 201.542 433.918 202.038C434.385 201.195 435.662 198.918 436.473 197.758C437.481 196.319 441.367 191.857 441.655 184.372C441.943 176.887 434.746 169.978 428.269 168.107C424.543 167.031 420.727 167.813 417.715 168.918C417.903 169.293 418.556 169.712 420.353 169.979C424.239 170.555 428.845 168.684 431.292 170.411C433.739 172.138 434.746 177.32 432.587 179.191C430.428 181.062 425.966 184.085 427.837 186.532C429.708 188.979 430.716 191.426 430.716 192.002C430.716 192.578 429.852 193.154 430.716 193.298C431.58 193.442 432.731 193.73 433.163 192.434C433.595 191.139 435.898 189.123 437.049 191.426C438.2 193.729 436.761 196.464 435.466 198.191C434.171 199.917 432.155 200.925 432.155 200.925Z" fill="#263238" stroke="#263238" stroke-miterlimit="10" stroke-linecap="round" stroke-linejoin="round"/>
<path d="M479.079 204.667L467.708 204.235C467.708 204.235 434.315 196.031 431.868 194.735C429.421 193.439 429.997 189.697 429.709 188.833C429.421 187.969 428.701 184.083 429.421 183.076C430.141 182.068 436.186 177.462 436.618 176.887C437.05 176.311 435.898 173.576 436.186 172.857C436.474 172.137 437.194 171.993 437.913 172.425C438.633 172.857 438.777 173.577 438.777 173.577C438.777 173.577 440.216 173.865 441.512 176.168C442.807 178.471 443.095 180.342 442.807 181.206C442.519 182.07 444.102 183.797 443.815 185.092C443.527 186.387 441.656 189.698 441.656 189.698C441.656 189.698 468.86 188.546 473.466 188.546C478.072 188.546 488.867 187.97 490.163 190.561C491.459 193.152 490.163 197.614 488.004 200.637" fill="#BDBDBD"/>
<path d="M479.079 204.667L467.708 204.235C467.708 204.235 434.315 196.031 431.868 194.735C429.421 193.439 429.997 189.697 429.709 188.833C429.421 187.969 428.701 184.083 429.421 183.076C430.141 182.068 436.186 177.462 436.618 176.887C437.05 176.311 435.898 173.576 436.186 172.857C436.474 172.137 437.194 171.993 437.913 172.425C438.633 172.857 438.777 173.577 438.777 173.577C438.777 173.577 440.216 173.865 441.512 176.168C442.807 178.471 443.095 180.342 442.807 181.206C442.519 182.07 444.102 183.797 443.815 185.092C443.527 186.387 441.656 189.698 441.656 189.698C441.656 189.698 468.86 188.546 473.466 188.546C478.072 188.546 488.867 187.97 490.163 190.561C491.459 193.152 490.163 197.614 488.004 200.637" stroke="#263238" stroke-miterlimit="10" stroke-linecap="round" stroke-linejoin="round"/>
<path d="M441.655 189.698L437.67 189.204" stroke="#263238" stroke-miterlimit="10" stroke-linecap="round" stroke-linejoin="round"/>
<path d="M438.776 173.577C438.776 173.577 440.578 177.157 440.162 178.195C439.747 179.234 439.747 179.234 439.747 179.234" stroke="#263238" stroke-miterlimit="10" stroke-linecap="round" stroke-linejoin="round"/>
<path d="M442.807 181.206C442.807 181.206 441.202 182.766 440.163 183.389" stroke="#263238" stroke-miterlimit="10" stroke-linecap="round" stroke-linejoin="round"/>
<path d="M488.003 200.637C490.162 197.614 491.457 193.152 490.162 190.561C488.875 187.987 478.216 188.538 473.56 188.546C474.289 190.127 474.978 192.821 473.753 196.319C472.469 199.986 468.856 202.538 466.397 203.912C467.227 204.117 467.708 204.235 467.708 204.235L479.079 204.667" fill="#DF7070"/>
<path d="M488.003 200.637C490.162 197.614 491.457 193.152 490.162 190.561C488.875 187.987 478.216 188.538 473.56 188.546C474.289 190.127 474.978 192.821 473.753 196.319C472.469 199.986 468.856 202.538 466.397 203.912C467.227 204.117 467.708 204.235 467.708 204.235L479.079 204.667" stroke="#263238" stroke-miterlimit="10" stroke-linecap="round" stroke-linejoin="round"/>
<g opacity="0.3">
<path d="M243.98 166.67C244.879 164.951 245.396 163.008 245.396 160.943C245.396 153.999 239.656 148.369 232.576 148.369C225.496 148.369 219.756 153.999 219.756 160.943C219.756 165.189 221.908 168.936 225.194 171.212C220.702 172.021 217.29 175.941 217.29 180.666C217.29 183.012 218.132 185.16 219.529 186.83C215.234 189.175 212.359 193.382 212.359 198.197C212.359 205.564 219.066 211.536 227.339 211.536C235.612 211.536 242.319 205.564 242.319 198.197C242.319 196.42 241.921 194.727 241.212 193.176C241.697 193.215 242.186 193.24 242.683 193.24C251.261 193.24 258.215 187.279 258.215 179.927C258.217 172.949 251.951 167.235 243.98 166.67Z" fill="black"/>
<path d="M216.551 150.342C221.044 150.342 224.687 146.699 224.687 142.206C224.687 137.713 221.044 134.07 216.551 134.07C212.058 134.07 208.415 137.713 208.415 142.206C208.415 146.699 212.058 150.342 216.551 150.342Z" fill="black"/>
<path d="M194.608 131.604C193.246 131.604 192.143 132.708 192.143 134.069C192.143 135.43 193.247 136.534 194.608 136.534C195.97 136.534 197.073 135.43 197.073 134.069C197.073 132.708 195.97 131.604 194.608 131.604Z" fill="black"/>
<path d="M244.41 137.028C248.223 137.028 251.313 133.937 251.313 130.125C251.313 126.312 248.222 123.222 244.41 123.222C240.597 123.222 237.507 126.313 237.507 130.125C237.507 133.937 240.598 137.028 244.41 137.028Z" fill="black"/>
</g>
<g opacity="0.3">
<path d="M267.581 82.955C266.219 82.955 265.116 84.059 265.116 85.42C265.116 86.782 266.22 87.885 267.581 87.885C268.943 87.885 270.046 86.781 270.046 85.42C270.046 84.059 268.943 82.955 267.581 82.955Z" fill="black"/>
<path d="M262.296 62.202C258.314 64.285 256.775 69.201 258.858 73.182C260.941 77.164 265.857 78.703 269.838 76.62C273.82 74.537 275.359 69.621 273.276 65.64C271.194 61.658 266.278 60.119 262.296 62.202Z" fill="black"/>
<path d="M316.953 118.021C317.852 116.302 318.369 114.359 318.369 112.294C318.369 108.203 316.368 104.58 313.284 102.284C319.348 98.912 322.588 92.628 321.606 86.928C323.234 85.665 324.286 83.696 324.286 81.476C324.286 77.663 321.195 74.573 317.383 74.573C315.154 74.573 313.178 75.634 311.916 77.273C308.716 76.574 305.122 76.887 301.712 78.374C301.712 76.434 301.27 74.473 300.312 72.643C297.093 66.49 289.398 64.162 283.124 67.444C276.85 70.726 274.374 78.375 277.592 84.528C278.735 86.712 280.451 88.393 282.459 89.531C281.78 90.719 281.387 92.091 281.387 93.557C281.387 94.451 281.54 95.307 281.808 96.111C279.32 95.555 276.631 95.838 274.194 97.112C268.722 99.974 266.607 106.731 269.469 112.203C271.531 116.145 275.614 118.332 279.782 118.183C276.668 121.468 275.768 126.438 277.825 130.712C273.29 133.887 271.699 140.004 274.334 145.04C276.523 149.225 280.99 151.437 285.418 150.97C286.215 157.669 292.577 162.889 300.311 162.889C308.584 162.889 315.291 156.917 315.291 149.55C315.291 147.773 314.893 146.08 314.184 144.529C314.669 144.568 315.158 144.593 315.655 144.593C324.233 144.593 331.187 138.632 331.187 131.28C331.19 124.3 324.924 118.587 316.953 118.021Z" fill="black"/>
<path d="M241.711 70.188C240.505 70.819 240.038 72.309 240.669 73.515C241.3 74.722 242.79 75.188 243.996 74.557C245.203 73.926 245.669 72.436 245.038 71.23C244.407 70.024 242.917 69.557 241.711 70.188Z" fill="black"/>
<path d="M288.354 51.91C291.732 50.143 293.038 45.972 291.271 42.593C289.504 39.215 285.332 37.909 281.954 39.676C278.576 41.443 277.27 45.614 279.037 48.993C280.804 52.371 284.975 53.677 288.354 51.91Z" fill="black"/>
</g>
<path d="M215.479 174.833C215.479 171.034 212.399 167.954 208.6 167.954C204.801 167.954 201.721 171.034 201.721 174.833C201.721 178.632 204.801 181.712 208.6 181.712C212.399 181.713 215.479 178.633 215.479 174.833Z" fill="white" stroke="#263238" stroke-miterlimit="10" stroke-linecap="round" stroke-linejoin="round"/>
<path d="M213.559 169.898L204.161 179.296" stroke="#263238" stroke-miterlimit="10" stroke-linecap="round" stroke-linejoin="round"/>
<path d="M279.331 247.37C279.331 243.571 276.251 240.491 272.452 240.491C268.653 240.491 265.573 243.571 265.573 247.37C265.573 251.169 268.653 254.249 272.452 254.249C276.25 254.249 279.331 251.169 279.331 247.37Z" fill="#263238" stroke="#263238" stroke-miterlimit="10" stroke-linecap="round" stroke-linejoin="round"/>
<path d="M336.879 174.833C336.879 171.034 333.799 167.954 330 167.954C326.201 167.954 323.121 171.034 323.121 174.833C323.121 178.632 326.201 181.712 330 181.712C333.799 181.713 336.879 178.633 336.879 174.833Z" fill="white" stroke="#263238" stroke-miterlimit="10" stroke-linecap="round" stroke-linejoin="round"/>
<path d="M334.96 169.898L325.562 179.296" stroke="#263238" stroke-miterlimit="10" stroke-linecap="round" stroke-linejoin="round"/>
<path d="M243.634 409.823L219.672 418.156C218.861 418.438 218.356 419.247 218.46 420.099C218.576 421.059 219.421 421.761 220.386 421.701L244.996 420.226L243.634 409.823Z" fill="white" stroke="#263238" stroke-miterlimit="10" stroke-linecap="round" stroke-linejoin="round"/>
<path d="M220.386 421.701L224.341 416.851" stroke="#263238" stroke-miterlimit="10" stroke-linecap="round" stroke-linejoin="round"/>
<path d="M224.88 421.349L230.073 415.03" stroke="#263238" stroke-miterlimit="10" stroke-linecap="round" stroke-linejoin="round"/>
<path d="M229.386 421.227L236.521 412.479" stroke="#263238" stroke-miterlimit="10" stroke-linecap="round" stroke-linejoin="round"/>
<path d="M234.125 420.975L242.571 410.62" stroke="#263238" stroke-miterlimit="10" stroke-linecap="round" stroke-linejoin="round"/>
<path d="M251.829 414.462C251.372 410.69 247.944 408.003 244.172 408.46C240.4 408.917 237.713 412.345 238.17 416.117C238.627 419.889 242.055 422.576 245.827 422.119C249.599 421.662 252.286 418.234 251.829 414.462Z" fill="white" stroke="#263238" stroke-miterlimit="10" stroke-linecap="round" stroke-linejoin="round"/>
<path d="M249.329 409.793L241.131 420.254" stroke="#263238" stroke-miterlimit="10" stroke-linecap="round" stroke-linejoin="round"/>
<path d="M246.748 244.129C246.748 242.352 246.613 240.606 246.36 238.9L255.583 235.903L256.839 232.889L254.795 233.478L251.942 224.698L242.692 227.704C241.076 224.638 239.025 221.838 236.616 219.389L242.32 211.537L243.576 208.522L241.556 210.982L232.788 204.612L227.072 212.479C224.026 210.973 220.733 209.896 217.268 209.322V199.62H207.495L206.742 196.605L205.486 199.62V209.35C202.025 209.94 198.737 211.032 195.697 212.551L189.996 204.703L183.588 209.359L181.72 208.614L181.518 209.1L180.464 211.629L186.185 219.504C183.788 221.964 181.749 224.771 180.147 227.845L173.957 225.834L172.177 221.833L170.921 224.847L167.28 236.052L176.531 239.058C176.293 240.715 176.163 242.406 176.163 244.129C176.163 245.906 176.298 247.652 176.551 249.358L171.524 250.991L168.584 249.34L167.328 252.355L170.969 263.56L180.219 260.554C181.835 263.62 183.886 266.42 186.295 268.869L182.753 273.744L181.846 273.706L180.59 276.72L190.122 283.645L195.838 275.778C198.884 277.284 202.177 278.361 205.642 278.935V288.637H217.424L218.68 285.623L217.424 285.632V278.907C220.885 278.317 224.173 277.225 227.213 275.705L232.914 283.553L242.446 276.628L243.702 273.614L241.145 274.838L236.724 268.753C239.121 266.293 241.16 263.486 242.762 260.412L251.988 263.41L255.629 252.205L246.378 249.199C246.618 247.543 246.748 245.852 246.748 244.129ZM211.456 266.795C198.938 266.795 188.79 256.647 188.79 244.129C188.79 231.611 198.938 221.463 211.456 221.463C223.974 221.463 234.122 231.611 234.122 244.129C234.122 256.647 223.974 266.795 211.456 266.795Z" fill="#263238" stroke="#263238" stroke-miterlimit="10" stroke-linecap="round" stroke-linejoin="round"/>
<path d="M253.246 260.397L256.887 249.192L247.636 246.186C247.874 244.529 248.004 242.838 248.004 241.115C248.004 239.338 247.869 237.592 247.616 235.886L256.839 232.889L253.198 221.684L243.948 224.69C242.332 221.624 240.281 218.824 237.872 216.375L243.576 208.523L234.044 201.598L228.328 209.465C225.282 207.959 221.989 206.882 218.524 206.308V196.606H206.742V206.336C203.281 206.926 199.993 208.018 196.953 209.537L191.252 201.689L181.72 208.614L187.441 216.489C185.044 218.949 183.005 221.756 181.403 224.83L172.176 221.832L168.535 233.037L177.786 236.043C177.548 237.7 177.418 239.391 177.418 241.114C177.418 242.891 177.553 244.637 177.806 246.343L168.583 249.34L172.224 260.545L181.474 257.539C183.09 260.605 185.141 263.405 187.55 265.854L181.846 273.706L191.378 280.631L197.094 272.764C200.14 274.27 203.433 275.347 206.898 275.921V285.623H218.68V275.893C222.141 275.303 225.429 274.211 228.469 272.691L234.171 280.539L243.703 273.614L237.982 265.739C240.379 263.279 242.418 260.472 244.02 257.398L253.246 260.397ZM190.045 241.114C190.045 228.596 200.193 218.448 212.711 218.448C225.229 218.448 235.377 228.596 235.377 241.114C235.377 253.632 225.229 263.78 212.711 263.78C200.193 263.78 190.045 253.633 190.045 241.114Z" fill="#BDBDBD" stroke="#263238" stroke-miterlimit="10" stroke-linecap="round" stroke-linejoin="round"/>
<path d="M308.173 181.45C308.173 179.673 308.038 177.927 307.785 176.221L317.008 173.224L318.264 170.209L316.22 170.798L313.367 162.018L304.117 165.024C302.501 161.958 300.45 159.158 298.041 156.709L303.745 148.857L305.001 145.843L302.981 148.303L294.213 141.933L288.497 149.8C285.451 148.294 282.158 147.217 278.693 146.643V136.941H268.921L268.168 133.927L266.912 136.941V146.671C263.451 147.261 260.163 148.353 257.123 149.872L251.422 142.024L245.014 146.68L243.146 145.935L242.944 146.421L241.89 148.95L247.611 156.825C245.214 159.285 243.175 162.092 241.573 165.166L235.383 163.155L233.603 159.154L232.347 162.168L228.706 173.373L237.957 176.379C237.719 178.036 237.589 179.727 237.589 181.45C237.589 183.227 237.724 184.973 237.977 186.679L232.95 188.312L230.01 186.661L228.754 189.675L232.395 200.88L241.645 197.874C243.261 200.94 245.312 203.74 247.721 206.189L244.179 211.064L243.273 211.026L242.017 214.04L251.549 220.965L257.265 213.098C260.311 214.604 263.604 215.681 267.069 216.255V225.957H278.851L280.107 222.943L278.851 222.953V216.228C282.312 215.638 285.6 214.546 288.64 213.026L294.342 220.874L303.874 213.949L305.13 210.935L302.573 212.159L298.152 206.074C300.549 203.614 302.588 200.807 304.19 197.733L313.416 200.731L317.057 189.526L307.806 186.52C308.043 184.865 308.173 183.173 308.173 181.45ZM272.881 204.117C260.363 204.117 250.215 193.969 250.215 181.451C250.215 168.933 260.363 158.785 272.881 158.785C285.399 158.785 295.547 168.933 295.547 181.451C295.547 193.969 285.399 204.117 272.881 204.117Z" fill="#263238" stroke="#263238" stroke-miterlimit="10" stroke-linecap="round" stroke-linejoin="round"/>
<path d="M314.67 197.718L318.312 186.513L309.061 183.507C309.299 181.85 309.428 180.158 309.428 178.436C309.428 176.659 309.293 174.913 309.04 173.207L318.264 170.21L314.622 159.005L305.372 162.011C303.756 158.945 301.705 156.145 299.296 153.696L305.001 145.844L295.468 138.919L289.752 146.786C286.706 145.28 283.414 144.203 279.949 143.629V133.927H268.166V143.657C264.705 144.247 261.417 145.339 258.377 146.859L252.675 139.011L243.143 145.936L248.865 153.811C246.468 156.271 244.428 159.078 242.826 162.152L233.6 159.154L229.958 170.359L239.21 173.365C238.972 175.022 238.841 176.713 238.841 178.436C238.841 180.213 238.976 181.959 239.229 183.665L230.007 186.662L233.647 197.867L242.898 194.861C244.514 197.927 246.566 200.727 248.975 203.176L243.27 211.027L252.802 217.952L258.519 210.085C261.565 211.591 264.857 212.668 268.322 213.242V222.944H280.105V213.214C283.566 212.624 286.854 211.532 289.894 210.013L295.596 217.86L305.127 210.935L299.407 203.06C301.804 200.6 303.843 197.793 305.445 194.719L314.67 197.718ZM251.469 178.436C251.469 165.918 261.617 155.77 274.135 155.77C286.653 155.77 296.801 165.918 296.801 178.436C296.801 190.954 286.653 201.102 274.135 201.102C261.618 201.102 251.469 190.954 251.469 178.436Z" fill="#BDBDBD" stroke="#263238" stroke-miterlimit="10" stroke-linecap="round" stroke-linejoin="round"/>
<path d="M368.47 408.459L366.081 411.492C365.795 411.313 365.52 411.132 365.203 410.956C364.179 410.384 363.041 409.847 361.784 409.341L367.767 407.564L370.087 407.022V406.875L370.14 406.859L370.087 406.844V400.256L358.654 402.44L360.63 404.127L359.726 403.867L351.352 406.359C347.827 405.642 349.078 402.829 345.039 402.44L341.663 401.235L327.274 400.589L324.863 400.65C319.881 397.774 315.264 397.435 313.034 404.66L307.468 401.551L300.694 402.575L304.524 399.674L294.597 396.731V403.497L286.951 404.718L274.156 404.71V411.476L284.929 413.057C284.534 413.443 284.227 413.836 283.961 414.232L273.779 414.716L271.32 410.525V417.291L273.779 421.482L283.189 421.035V426.699L293.594 429.693L301.968 427.201C305.486 427.917 309.328 428.474 313.357 428.862L311.656 432.325L326.045 432.971L327.769 429.504C331.957 429.484 336.179 429.287 340.295 428.899L345.861 432.008L358.723 430.064L357.765 425.758C359.307 425.302 360.723 424.816 361.996 424.304L372.722 425.879L379.163 422.085V416.406L381.999 416.27V409.504L368.47 408.459ZM297.927 405.356L300.182 406.616C298.768 406.927 297.455 407.267 296.205 407.622L297.927 405.356ZM343.536 423.339V419.908C343.536 419.908 341.997 419.954 339.671 420.024V419.523C338.337 419.725 336.967 419.935 335.584 420.146C328.021 420.372 317.74 420.677 317.377 420.677L316.527 422.409C310.458 422.725 305.173 422.346 301.908 420.522C294.722 416.508 299.974 411.578 313.649 409.511C327.324 407.444 344.232 409.025 351.418 413.039C357.876 416.647 354.273 420.996 343.536 423.339ZM375.958 417.206L371.932 416.75L377.156 416.5L375.958 417.206Z" fill="#263238" stroke="#263238" stroke-miterlimit="10" stroke-linecap="round" stroke-linejoin="round"/>
<path d="M341.664 394.468L338.368 399.51L341.664 398.697V394.468Z" fill="#263238" stroke="#263238" stroke-miterlimit="10" stroke-linecap="round" stroke-linejoin="round"/>
<path d="M339.672 417.282C325.997 419.349 309.089 417.769 301.908 413.757C294.722 409.743 299.974 404.813 313.649 402.746C327.324 400.679 344.232 402.26 351.418 406.274C358.599 410.285 353.346 415.215 339.672 417.282ZM307.468 394.784L294.596 396.73L300.181 399.85C296.739 400.608 293.778 401.503 291.323 402.491L280.597 400.916L274.156 404.71L284.929 406.291C283.719 407.476 283.104 408.712 283.121 409.96L271.32 410.525L273.779 414.716L285.608 414.154C286.301 414.724 287.133 415.287 288.122 415.84C289.141 416.409 290.279 416.947 291.536 417.452L283.189 419.933L293.594 422.927L301.968 420.435C305.493 421.152 309.343 421.71 313.382 422.099L311.657 425.559L326.046 426.205L327.77 422.738C331.958 422.718 336.18 422.521 340.296 422.133L345.862 425.242L358.724 423.298L353.139 420.178C356.581 419.42 359.542 418.525 361.997 417.537L372.723 419.112L379.164 415.318L368.391 413.737C369.601 412.552 370.216 411.316 370.199 410.068L382 409.503L379.541 405.312L367.712 405.874C367.02 405.304 366.188 404.741 365.203 404.191C364.179 403.619 363.041 403.082 361.784 402.576L370.14 400.094L359.726 397.102L351.352 399.594C347.827 398.877 343.977 398.319 339.939 397.93L341.664 394.47L327.275 393.824L325.551 397.291C321.363 397.311 317.141 397.508 313.035 397.895L307.468 394.784Z" fill="#BDBDBD" stroke="#263238" stroke-miterlimit="10" stroke-linecap="round" stroke-linejoin="round"/>
<path opacity="0.2" d="M296.232 256.29L296.318 256.293L297.829 254.917L296.232 256.29Z" fill="black"/>
<path opacity="0.2" d="M294.519 261.04L294.039 261.287C294.056 261.377 294.149 261.387 294.519 261.04Z" fill="black"/>
<path opacity="0.2" d="M295.352 259.273C295.49 259.092 294.388 260.288 293.969 260.751C294.347 260.57 295.428 259.558 295.352 259.273Z" fill="black"/>
<path opacity="0.2" d="M292.754 263.56L296.979 262.187C297.295 261.867 297.467 261.594 297.243 261.432C296.516 262.45 296.61 261.792 296.088 262.159L296.075 262.252C295.946 262.343 295.559 262.614 295.707 262.343C296.616 261.932 297.774 260.947 298.655 260.353C298.231 260.576 298.771 259.745 298.79 259.588C299.586 258.943 298.997 259.78 299.088 259.97C299.493 259.602 300.367 259.24 300.444 258.68C300.78 257.939 299.562 259.13 299.208 259.126L301.689 257.301L301.573 257.299C301.822 257.208 302.211 256.935 302.369 256.655C302.42 256.281 301.886 256.74 301.602 257.108C302.488 255.734 304.117 255.658 304.581 254.201L304.197 254.444C304.343 254.255 304.47 254.168 304.59 254.167C304.589 254.177 304.583 254.189 304.581 254.201L305.353 253.717C305.37 253.619 305.393 253.433 305.265 253.523L306.032 253.07C307.346 252.063 306.004 252.415 306.309 251.946L306.254 252.006C306.552 251.596 306.673 251.185 306.383 251.388L307.814 250.384L307.8 250.382C307.642 250.419 307.516 250.413 307.477 250.282L307.8 250.382C308.567 250.204 310.423 248.487 310.933 249.04C310.985 248.973 311.027 248.908 311.069 248.844C311.046 248.738 311.025 248.631 311.004 248.524C310.903 248.626 310.79 248.717 310.605 248.848C310.777 248.712 310.897 248.609 311.003 248.516C310.778 247.368 310.641 246.188 310.596 244.985C310.267 245.252 310.028 245.49 310.018 245.674C310.065 245.646 310.11 245.614 310.157 245.589L310.115 245.874C310.04 245.818 310.013 245.75 310.018 245.675C309.073 246.236 308.378 247.178 307.634 247.701L307.829 247.986C307.439 248.26 306.931 248.532 306.648 248.899C306.686 248.933 306.763 248.924 306.858 248.887C307.043 248.741 307.211 248.6 307.413 248.447C307.229 248.684 307.02 248.827 306.858 248.887C305.475 249.982 304.47 250.976 303.398 252.024C303.618 252.123 303.722 252.22 304.382 251.672C303.631 252.874 301.488 253.955 300.097 255.523L300.326 255.533L299.304 256.163C299.551 256.075 299.52 256.266 299.627 256.36C298.25 257.834 296.482 259.581 295.273 259.838C295.783 259.564 294.91 260.769 295.936 260.134C294.802 260.854 293.669 261.901 292.559 262.955L292.754 263.56ZM300.584 257.652L301.509 256.918L300.558 257.839L300.584 257.652ZM298.165 259.857L297.346 260.684L296.842 260.954L298.165 259.857Z" fill="black"/>
<path opacity="0.2" d="M294.038 261.286C294.014 261.102 294.302 260.577 293.636 261.489L294.038 261.286Z" fill="black"/>
<path opacity="0.2" d="M294.087 258.217L295.749 257.22L295.127 257.487L296.163 256.76C295.827 256.659 294.686 257.291 294.087 258.217Z" fill="black"/>
<path opacity="0.2" d="M295.027 258.141C294.947 258.167 294.806 258.26 294.516 258.509C294.668 258.371 294.849 258.246 295.027 258.141Z" fill="black"/>
<path opacity="0.2" d="M295.027 258.141C295.236 258.077 294.969 258.53 295.631 258.065C295.586 257.885 295.319 257.97 295.027 258.141Z" fill="black"/>
<path opacity="0.2" d="M328.603 283.443L329.107 282.656C328.374 282.617 328.709 283.055 328.603 283.443Z" fill="black"/>
<path opacity="0.2" d="M296.694 256.306L296.318 256.293L296.217 256.385L296.694 256.306Z" fill="black"/>
<path opacity="0.2" d="M337.185 218.46C337.603 218.288 338.243 218.267 338.459 217.454C337.69 217.524 337.845 218.09 337.185 218.46Z" fill="black"/>
<path opacity="0.2" d="M328.44 283.699C328.532 283.62 328.58 283.532 328.603 283.443L328.44 283.699Z" fill="black"/>
<path opacity="0.2" d="M342.528 210.103C342.475 210.089 342.423 210.073 342.37 210.058C342.218 210.325 342.145 210.549 342.228 210.583C342.241 210.475 342.359 210.306 342.528 210.103Z" fill="black"/>
<path opacity="0.2" d="M338.289 220.974L338.054 220.969C339.484 219.965 340.59 217.922 341.832 216.546C341.81 216.729 340.747 217.643 341.187 217.842L342.932 216.279C342.954 216.096 343.642 215.359 343.019 215.627C342.756 215.811 342.598 216.091 342.46 216.273L342.514 215.896C344.226 214.527 342.903 216.468 343.217 216.754C343.931 215.831 344.518 215.841 345.065 215.288C345.024 214.726 343.668 216.016 344.046 214.991C344.372 214.339 346.204 212.969 347.06 212.707C347.078 212.419 347.202 212.119 347.386 211.818C346.936 211.621 346.484 211.427 346.024 211.248C343.478 213.591 340.545 215.188 338.577 218.298L338.693 218.302L336.499 219.756C336.208 220.13 336.395 220.506 335.954 221.151C335.931 220.845 335.608 221.176 335.224 221.553C335.956 221.617 336.678 221.716 337.389 221.847C337.52 221.62 337.765 221.342 338.289 220.974Z" fill="black"/>
<path opacity="0.2" d="M299.677 254.296C299.962 253.928 299.623 253.826 300.391 253.373C300.468 253.658 301.145 253.857 301.877 252.836C300.884 253.194 300.664 253.096 299.624 253.826L299.677 254.296Z" fill="black"/>
<path opacity="0.2" d="M301.812 253.455L302.783 252.2C301.8 252.413 302.097 252.887 301.812 253.455Z" fill="black"/>
<path opacity="0.2" d="M301.812 253.455L301.498 253.862C301.652 253.721 301.75 253.583 301.812 253.455Z" fill="black"/>
<path opacity="0.2" d="M310.821 240.732L310.828 240.726L310.829 240.72L310.821 240.732Z" fill="black"/>
<path opacity="0.2" d="M361.227 222.67C361.159 222.582 361.089 222.496 361.021 222.409C360.875 222.541 360.724 222.681 360.557 222.844C360.584 223.079 360.935 222.875 361.227 222.67Z" fill="black"/>
<path opacity="0.2" d="M350.406 259.126C350.776 258.547 351.242 258.678 351.557 258.356C351.473 258.104 351.19 258.216 350.968 258.243C350.764 258.499 350.554 258.75 350.339 258.997C350.355 259.048 350.373 259.095 350.406 259.126Z" fill="black"/>
<path opacity="0.2" d="M351.519 258.072C351.488 257.862 351.888 257.496 352.194 257.102C351.729 256.969 351.322 257.951 351.519 258.072Z" fill="black"/>
<path opacity="0.2" d="M345.673 265.931C345.338 266.111 344.521 266.014 344.262 266.763L344.762 266.496L344.691 266.61L344.968 266.69C344.38 266.318 345.429 266.138 345.673 265.931Z" fill="black"/>
<path opacity="0.2" d="M354.128 231.158L353.684 231.807L354.085 231.441L354.128 231.158Z" fill="black"/>
<path opacity="0.2" d="M311.645 251.025C311.257 251.398 310.895 251.768 310.52 252.031L310.715 252.316C310.325 252.59 309.817 252.862 309.534 253.229C309.572 253.263 309.649 253.254 309.744 253.217C309.928 253.071 310.097 252.93 310.299 252.777C310.115 253.014 309.906 253.157 309.744 253.217C308.361 254.312 307.356 255.306 306.284 256.354C306.504 256.453 306.608 256.55 307.268 256.002C306.517 257.205 304.374 258.285 302.983 259.853L303.212 259.863L302.19 260.493C302.437 260.405 302.406 260.596 302.513 260.69C302.426 260.783 302.334 260.878 302.245 260.973C303.824 263.873 305.784 266.534 308.08 268.87L302.376 276.721L311.908 283.646L317.624 275.779C320.67 277.285 323.963 278.362 327.428 278.936V281.231C327.606 281.088 327.738 280.899 327.756 280.585L327.504 280.696C327.58 280.577 327.662 280.535 327.756 280.56C327.758 280.568 327.755 280.576 327.756 280.585L328.264 280.365C328.257 280.291 328.236 280.149 328.154 280.194L328.664 279.997C329.49 279.477 328.504 279.474 328.646 279.167L328.615 279.203C328.764 278.942 328.773 278.642 328.587 278.742L329.506 278.25L329.495 278.245C329.378 278.241 329.277 278.21 329.219 278.098L329.495 278.245C330.063 278.266 331.169 277.299 331.688 277.844C331.834 277.615 331.885 277.369 331.724 277.374C331.714 277.383 331.696 277.395 331.686 277.403C331.619 277.491 331.54 277.542 331.388 277.624C331.524 277.534 331.612 277.464 331.686 277.403C331.696 277.39 331.707 277.385 331.716 277.371C331.72 277.37 331.719 277.374 331.723 277.374C332.278 276.884 331.187 277.085 332.11 276.321C332.007 276.224 331.935 276.339 331.767 276.43C331.977 276.198 332.103 276.144 332.196 276.164C332.139 276.106 332.09 276.024 332.056 275.893C332.26 276.088 332.567 275.695 332.714 275.464L332.08 275.423C332.433 275.387 332.6 275.297 332.908 274.904L332.462 274.914C333.11 274.415 332.963 275.331 333.471 274.451L333.045 275.288C333.853 274.627 334.032 275.293 334.553 275.166C335.656 274.729 335.989 273.179 337.251 273.264C337.12 272.953 336.945 272.97 336.981 272.569C336.406 272.955 336.072 273.133 335.524 273.046C334.26 273.649 336.113 274.103 334.57 274.624C334.345 274.289 334.661 273.967 335.088 273.813C334.874 273.547 334.363 273.745 334.021 273.851C334.744 273.389 335.286 272.239 335.69 271.905C335.676 271.907 335.658 271.912 335.643 271.915L335.727 271.871C335.714 271.881 335.703 271.895 335.691 271.905C335.998 271.853 336.638 271.565 336.776 271.286C336.751 271.247 336.745 271.188 336.782 271.078C336.826 271.143 336.813 271.212 336.776 271.286C336.93 271.497 337.987 270.708 338.076 271.374C338.809 270.83 337.953 270.45 339.003 270.268C338.453 270.182 339.186 269.637 338.647 269.621C338.715 270.117 337.58 270.345 337.059 270.471L337.812 269.382C337.67 269.688 338.192 269.56 338.359 269.471L338.22 269.088C339 269.585 339.377 267.019 340.576 267.292C340.253 267.541 340.224 268.014 339.748 267.814C339.398 268.533 340.337 268.183 340.309 268.655C341.396 268.072 342.246 266.398 343.62 265.966C343.258 265.932 342.87 266.369 342.57 266.148C343.091 265.335 344.491 265.119 345.495 264.58L345.017 264.381C345.958 264.028 345.149 264.004 345.963 263.416C345.975 263.485 346.001 263.701 346.161 263.538C346.706 262.942 345.937 263.201 346.231 262.739C346.822 262.642 346.844 262.479 346.838 262.267C343.05 265.112 338.342 266.798 333.24 266.798C323.127 266.795 314.564 260.171 311.645 251.025ZM344.764 263.827C345.156 264.074 344.257 264.707 344.117 265.013C343.868 264.458 344.862 264.535 344.764 263.827Z" fill="black"/>
<path opacity="0.2" d="M361.24 224.011C361.314 223.883 361.372 223.771 361.38 223.703C361.257 223.838 361.229 223.934 361.24 224.011Z" fill="black"/>
<path opacity="0.2" d="M361.457 224.141C361.572 224.142 361.711 224.093 361.807 223.995C361.712 223.989 361.586 224.053 361.457 224.141Z" fill="black"/>
<path opacity="0.2" d="M361.457 224.141C361.342 224.145 361.258 224.097 361.24 224.011C360.825 224.729 359.497 226.233 358.703 226.933C358.519 227.401 359.678 226.672 360.052 226.494C358.816 226.094 361.133 225.482 361.501 224.546C361.252 224.637 360.834 225.099 360.6 225.095C360.721 224.827 361.117 224.372 361.457 224.141Z" fill="black"/>
<path opacity="0.2" d="M328.524 282.968C328.017 283.021 327.77 282.978 327.428 283.078V283.096C327.441 283.09 327.449 283.085 327.464 283.079C327.583 283.321 328.16 283.62 328.524 282.968Z" fill="black"/>
<path opacity="0.2" d="M359.26 224.6L360.883 223.039C360.466 222.654 360.206 223.682 359.726 223.766C359.8 223.242 360.427 222.821 360.959 222.331C360.154 221.308 359.311 220.315 358.399 219.388L364.103 211.536L357.236 206.546C356.647 207.109 355.972 207.874 355.282 208.456L355.489 208.648L354.708 209.196L355.072 209.11C354.395 209.752 353.278 210.2 352.684 211.121C353.111 210.569 353.547 210.771 353.643 210.957L351.301 212.601C351.393 212.789 350.563 213.708 351.33 213.255L350.315 213.798L350.535 213.898C347.721 217.307 343.868 218.829 341.465 222.627L341.581 222.631L341.183 222.895C345.866 224.648 349.811 227.906 352.436 232.079C353.461 231.358 354.544 230.564 355.399 229.586C355.165 229.582 354.762 229.949 354.646 229.947C355.841 228.938 357.938 228.227 358.224 227.013C357.54 227.354 356.744 227.778 356.013 228.18C355.867 228.321 355.745 228.374 355.624 228.397C355.164 228.654 354.732 228.901 354.411 229.096C355 228.29 355.291 228.461 355.624 228.397C355.753 228.324 355.881 228.251 356.013 228.18C356.155 228.042 356.315 227.824 356.519 227.45L355.908 227.625C357.158 226.239 357.39 227.092 358.395 226.638L358.9 225.525C359.698 224.494 360.608 223.645 361.508 223.022C361.435 222.924 361.354 222.831 361.28 222.733C360.656 223.357 359.902 224.371 359.26 224.6Z" fill="black"/>
<path opacity="0.2" d="M339.571 271.181C339.485 271.243 339.424 271.299 339.37 271.349C339.436 271.317 339.503 271.272 339.571 271.181Z" fill="black"/>
<path opacity="0.2" d="M338.976 271.424C339.146 271.635 339.167 271.543 339.37 271.349C339.067 271.492 338.787 271.164 338.568 271.719C338.744 271.7 338.8 271.441 338.976 271.424Z" fill="black"/>
<path opacity="0.2" d="M340.477 269.935C340.301 269.266 339.53 270.214 339.235 270.675C339.495 270.613 339.994 269.659 340.477 269.935Z" fill="black"/>
<path opacity="0.2" d="M339.343 269.475L339.392 269.829L339.696 269.437L339.343 269.475Z" fill="black"/>
<path opacity="0.2" d="M342.754 266.199L343.258 265.929L343.245 265.86L342.746 266.126L342.754 266.199Z" fill="black"/>
<path opacity="0.2" d="M342.374 270.06C341.88 269.715 342.17 270.551 341.568 270.721C341.774 270.915 342.253 270.506 342.525 270.513C342.673 270.28 342.236 270.363 342.05 270.311C342.123 270.196 342.205 270.151 342.374 270.06Z" fill="black"/>
<path opacity="0.2" d="M341.052 272.004L340.865 272.164C340.96 272.135 341.013 272.075 341.052 272.004Z" fill="black"/>
<path opacity="0.2" d="M341.052 272.004L341.347 271.752C341.13 271.595 341.153 271.824 341.052 272.004Z" fill="black"/>
<path opacity="0.2" d="M337.863 216.687L338.272 216.234C337.835 216.877 339.267 215.872 338.548 216.799C338.263 217.169 339.303 216.439 339.605 215.972C339.383 215.874 338.683 216.703 338.741 216.241L339.029 215.87C338.6 216.426 338.339 215.764 337.863 216.687Z" fill="black"/>
<path opacity="0.2" d="M360.579 251.543C360.33 251.675 360.237 251.65 360.117 252.096C360.368 251.962 360.599 251.685 360.579 251.543Z" fill="black"/>
<path opacity="0.2" d="M353.743 255.967C353.659 256.011 353.114 256.607 352.907 256.415L353.057 256.867C353.278 256.52 353.808 256.466 353.743 256.653C353.782 256.25 354.123 256.145 353.743 255.967Z" fill="black"/>
<path opacity="0.2" d="M357.331 251.986C357.109 252.333 356.308 252.382 356.552 252.86L357.293 252.387C357.266 252.173 357.609 252.066 357.331 251.986Z" fill="black"/>
<path opacity="0.2" d="M368.532 244.129C368.532 242.352 368.397 240.606 368.144 238.9L377.367 235.903L373.726 224.698L364.476 227.704C363.953 226.711 363.368 225.758 362.756 224.823C362.409 225.206 362.043 225.54 361.692 225.68C361.669 225.865 362.086 225.404 361.917 225.776C359.886 227.707 356.602 230.265 354.479 232.855C354.18 232.701 353.717 232.935 353.174 233.333C354.916 236.543 355.906 240.221 355.906 244.13C355.906 248.871 354.448 253.27 351.96 256.909C352.19 256.812 352.413 256.745 352.591 256.738C352.348 255.573 354.297 254.756 353.775 254.199C353.785 254.269 354.148 254.305 354.286 254.002L354.018 253.993C354.433 253.085 355.162 253.836 355.448 253.302C355.342 253.207 355.176 253.296 354.991 253.243C355.752 252.225 357.044 252.523 357.597 251.313C357.504 251.287 357.413 251.259 357.34 251.373C357.245 251.349 357.402 251.189 357.831 251.035L357.719 251.553C358.818 251.726 358.685 250.044 359.591 249.483C359.403 249.432 358.848 249.958 358.97 249.51C359.441 249.03 360.074 249.757 360.314 248.866C359.98 249.045 359.741 248.65 359.433 248.83C359.362 248.922 359.281 249.012 359.181 249.092C359.272 248.95 359.353 248.877 359.433 248.83C359.756 248.419 359.828 247.975 360.209 248.086C360.288 247.963 360.237 247.828 360.167 247.747C360.11 247.754 360.049 247.759 359.988 247.746C360.016 247.659 360.101 247.679 360.167 247.747C360.595 247.698 360.839 247.187 361.032 246.882L360.849 246.827C361.946 247.001 361.645 246.097 362.285 245.525L362.007 245.445C362.34 245.267 362.947 245.094 363.118 244.394L362.672 244.404C363.183 244.206 363.497 243.2 364.13 243.241C364.195 243.054 363.404 243.172 363.951 242.574C364.223 242.581 364.804 242.27 364.758 241.914C364.657 241.816 364.469 241.764 364.417 242.021C364.341 242.138 364.422 242.095 364.517 242.119L364.164 242.157C364.441 241.55 364.675 241.957 365.041 241.382C365.015 241.167 364.683 241.343 364.495 241.293L366.641 239.913C366.836 240.038 366.699 240.34 367.057 240.378L366.523 241.043C366.505 241.589 367.145 241.015 367.478 240.837L367.089 241.275C367.096 241.323 367.14 241.347 367.192 241.323L366.867 241.621C368.054 241.138 366.507 242.958 367.675 242.332C367.433 242.539 366.998 242.617 366.729 242.61C366.238 242.949 366.517 243.028 366.46 243.288L367.308 242.909C366.259 243.776 367.686 243.089 367.18 243.968C366.185 244.578 366.533 245.84 366.142 246.278C365.263 247.052 366.154 245.661 365.485 246.018C365.001 246.432 365.446 246.423 365.224 246.769L364.666 246.611C364.1 247.067 364.984 246.974 364.557 247.127C364.372 247.76 364.825 247.136 365.205 247.314C365.029 247.332 364.446 247.643 364.398 247.975C364.503 248.07 365.06 247.544 364.755 247.935C363.29 249.024 363.38 249.74 362.187 250.835L362.465 250.914C362.297 251.005 362.12 251.024 362.057 251.21L362.244 251.261C362.084 251.425 360.682 252.33 359.989 253.156L360.592 252.985L359.662 253.408L360.057 253.653C359.505 253.568 358.922 254.566 358.191 255.11L358.395 255.305L357.893 255.574L358.163 255.583C357.764 255.948 356.975 256.067 356.7 256.67C356.921 256.324 357.309 256.575 357.423 256.742L355.918 257.549C356.031 257.717 355.568 258.269 356.078 258.071L355.39 258.287L355.585 258.412C354.078 260.514 351.355 260.906 350.255 263.401L350.347 263.428L348.92 264.116C348.769 264.35 348.995 264.686 348.782 265.104C348.63 264.652 348.14 265.677 347.684 265.617C347.558 265.988 347.89 265.811 348.077 265.862C347.353 267.167 346.054 267.481 345.155 268.8C345.849 267.286 345.953 267.382 346.544 266.456C345.479 267.178 345.629 267.632 344.58 268.499L345.164 268.186C345.112 269.127 343.449 269.409 343.803 270.058C343.155 270.558 342.168 270.553 341.557 271.339L342.292 271.478L341.662 272.121L341.353 271.829C341.13 272.018 341.083 272.18 341.132 272.28C341.273 272.265 341.427 272.268 341.598 272.307C341.376 272.425 341.188 272.396 341.132 272.28C340.355 272.374 339.937 273.173 339.074 273.508L339.154 273.725C339.263 273.717 339.342 273.737 339.212 273.891L339.154 273.725C339.069 273.731 338.964 273.753 338.922 273.742C339.064 274.122 338.491 274.506 338.706 274.772C338.957 274.637 339.538 274.328 339.343 274.203C340.125 274.012 338.911 274.967 338.596 275.288C338.798 274.799 338.317 275.209 338.065 275.344C338.074 275.415 338.158 275.37 338.25 275.399C337.818 276.163 336.849 275.614 336.972 276.54L336.588 276.365L336.32 277.042C335.718 276.524 335.599 277.657 335.002 277.213C334.447 277.74 335.394 277.46 335.143 277.595C334.75 278.21 333.356 278.589 333.448 279.024C333.479 279.012 333.508 278.996 333.54 278.986L333.566 279.202C333.495 279.142 333.459 279.082 333.448 279.024C332.82 279.269 332.469 279.866 331.991 280.123L332.205 280.389C331.955 280.524 331.61 280.632 331.464 280.862C331.501 280.897 331.56 280.905 331.628 280.896C331.743 280.819 331.846 280.743 331.974 280.665C331.879 280.814 331.744 280.883 331.628 280.896C330.766 281.47 330.18 282.044 329.554 282.647C329.749 282.772 329.851 282.87 330.258 282.576C329.917 283.368 328.452 283.771 327.682 284.718L327.865 284.774L327.428 284.957V285.21C327.445 285.234 327.463 285.258 327.486 285.28C327.467 285.301 327.447 285.323 327.428 285.344V288.641H339.21V278.911C342.671 278.321 345.959 277.229 348.999 275.709L354.701 283.557L364.233 276.632L358.512 268.757C360.909 266.297 362.948 263.49 364.55 260.416L373.776 263.414L377.417 252.209L368.166 249.203C368.402 247.543 368.532 245.852 368.532 244.129ZM357.857 250.561C358.299 249.869 358.014 250.402 358.662 249.902L357.857 250.561Z" fill="black"/>
<path opacity="0.2" d="M297.948 244.129C297.948 245.906 298.083 247.652 298.336 249.358L289.113 252.355L291.938 261.048C292.795 260.226 293.556 259.355 294.058 258.408L292.525 259.315C293.226 258.485 294.89 257.488 294.356 257.1C293.629 258.118 293.723 257.46 293.201 257.827L293.188 257.92C293.059 258.011 292.672 258.282 292.82 258.011C293.729 257.6 294.887 256.615 295.768 256.021C295.344 256.244 295.884 255.413 295.903 255.256C296.699 254.611 296.11 255.448 296.201 255.638C296.606 255.27 297.481 254.908 297.557 254.348C297.893 253.607 296.675 254.798 296.321 254.794L298.802 252.968L298.686 252.966C298.935 252.875 299.324 252.602 299.482 252.322C299.534 251.948 298.999 252.407 298.715 252.775C299.601 251.401 301.23 251.325 301.694 249.868L301.31 250.111C301.456 249.922 301.583 249.835 301.703 249.834C301.702 249.844 301.696 249.856 301.694 249.868L302.466 249.384C302.483 249.286 302.506 249.1 302.378 249.19L303.144 248.737C304.458 247.73 303.116 248.082 303.421 247.613L303.366 247.673C303.664 247.263 303.785 246.851 303.495 247.055L304.926 246.051L304.913 246.049C304.755 246.086 304.629 246.08 304.59 245.949L304.913 246.049C305.68 245.871 307.536 244.154 308.046 244.707C308.327 244.342 308.487 243.989 308.266 244.053C308.249 244.069 308.22 244.091 308.204 244.106C308.081 244.25 307.955 244.348 307.718 244.515C307.935 244.343 308.081 244.216 308.204 244.106C308.223 244.084 308.239 244.073 308.257 244.052C308.263 244.049 308.26 244.055 308.266 244.053C309.2 243.184 307.64 243.854 309.175 242.478C309.07 242.383 308.93 242.566 308.668 242.751C309.039 242.358 309.229 242.24 309.348 242.233C309.291 242.175 309.254 242.081 309.256 241.914C309.464 242.105 310.024 241.459 310.308 241.091L309.459 241.265C309.953 241.088 310.213 240.905 310.775 240.258L310.164 240.433C310.673 239.995 310.816 240.065 310.939 240.105C312.679 230.392 320.602 222.83 330.492 221.633C330.711 221.429 330.899 221.191 330.942 220.871C331.149 220.961 330.941 221.268 330.634 221.615C330.832 221.592 331.031 221.572 331.231 221.555L331.087 221.531C332.497 220.709 331.403 220.969 332.726 219.873C332.717 219.963 332.675 220.247 332.951 219.967C333.91 218.957 332.768 219.589 333.336 218.853C335.083 218.132 333.581 217.921 335.404 216.641L335.169 216.637C336.599 215.633 337.705 213.59 338.947 212.214C338.925 212.397 337.862 213.311 338.302 213.51L340.047 211.947C340.069 211.764 340.757 211.027 340.134 211.295C339.871 211.48 339.713 211.76 339.575 211.941L339.629 211.564C341.341 210.195 340.018 212.136 340.332 212.422C341.046 211.499 341.633 211.509 342.18 210.956C342.139 210.394 340.783 211.684 341.161 210.658C341.261 210.457 341.513 210.186 341.827 209.902C340.915 209.674 339.992 209.475 339.054 209.319V199.617H327.272V209.347C323.811 209.937 320.523 211.029 317.483 212.548L311.781 204.701L302.249 211.626L307.97 219.501C305.573 221.961 303.534 224.768 301.932 227.842L292.705 224.844L289.064 236.049L298.315 239.055C298.077 240.714 297.948 242.406 297.948 244.129ZM292.201 259.119L291.368 259.196C292.018 258.74 292.326 259.034 292.201 259.119ZM294.458 256.353L293.954 256.623L295.277 255.526L294.458 256.353ZM297.669 253.508L297.696 253.321L298.621 252.587L297.669 253.508Z" fill="black"/>
<path opacity="0.2" d="M350.579 261.777C350.384 261.653 350.004 262.161 349.953 261.808L350.102 261.575C349.88 261.924 349.535 261.346 349.352 261.975L349.58 261.703C349.37 262.119 350.29 261.626 349.917 262.208C349.771 262.44 350.439 262.082 350.579 261.777Z" fill="black"/>
<path opacity="0.2" d="M361.685 247.748L361.781 247.773C361.771 247.702 361.806 247.604 361.854 247.498C361.753 247.521 361.661 247.565 361.685 247.748Z" fill="black"/>
<path opacity="0.2" d="M364.851 245.29L365.1 245.158C365.232 244.781 364.803 244.935 364.562 245.141C364.655 245.166 364.674 245.309 364.851 245.29Z" fill="black"/>
<path opacity="0.2" d="M360.701 251.783C361.111 251.485 361.437 251.922 361.63 251.361C361.306 251.61 360.968 251.106 360.701 251.783Z" fill="black"/>
<path opacity="0.2" d="M361.159 247.115C361.377 247.123 361.915 246.863 362.052 247.13C362.331 246.666 362.623 246.199 361.943 246.314L361.64 246.706C361.796 246.545 361.805 246.617 361.898 246.644C361.769 247.018 361.407 246.984 361.159 247.115Z" fill="black"/>
<path opacity="0.2" d="M362.085 247.383C362.104 247.261 362.085 247.186 362.052 247.13C361.977 247.257 361.907 247.383 361.854 247.499C361.95 247.477 362.055 247.471 362.085 247.383Z" fill="black"/>
<path opacity="0.2" d="M349.985 262.707C349.393 262.601 349.634 263.08 349.19 263.234C349.485 263.186 349.986 263.304 349.985 262.707Z" fill="black"/>
<path opacity="0.2" d="M355.042 205.079C355.047 205.045 355.059 205.011 355.076 204.977L354.893 204.844C354.397 205.229 353.736 205.547 353.862 205.991L355.042 205.079Z" fill="black"/>
<path opacity="0.2" d="M299.119 260.622L299.205 260.624L300.717 259.248L299.119 260.622Z" fill="black"/>
<path opacity="0.2" d="M298.016 261.819L299.052 261.092C298.779 261.01 297.981 261.414 297.368 262.061L298.286 261.763L298.637 261.552L298.016 261.819Z" fill="black"/>
<path opacity="0.2" d="M340.33 222.6C340.382 222.617 340.434 222.635 340.486 222.653C340.833 222.537 341.195 222.358 341.347 221.786C340.701 221.844 340.702 222.251 340.33 222.6Z" fill="black"/>
<path opacity="0.2" d="M342.493 220.303C342.272 220.205 341.571 221.034 341.629 220.572L341.917 220.201C341.488 220.757 341.227 220.095 340.751 221.018L341.16 220.565C340.723 221.208 342.155 220.203 341.436 221.13C341.15 221.5 342.191 220.77 342.493 220.303Z" fill="black"/>
<path opacity="0.2" d="M304.386 258.193C304.54 258.052 304.638 257.914 304.7 257.786L304.386 258.193Z" fill="black"/>
<path opacity="0.2" d="M304.764 257.167C303.771 257.525 303.551 257.427 302.511 258.157L302.565 258.627C302.85 258.26 302.511 258.157 303.279 257.704C303.355 257.989 304.032 258.188 304.764 257.167Z" fill="black"/>
<path opacity="0.2" d="M354.572 204.612L354.231 205.082C354.398 204.971 354.562 204.85 354.724 204.722L354.572 204.612Z" fill="black"/>
<path opacity="0.2" d="M304.7 257.786L305.671 256.531C304.688 256.744 304.985 257.219 304.7 257.786Z" fill="black"/>
<path opacity="0.2" d="M347.938 212.066C347.792 212.159 347.668 212.208 347.607 212.155L347.647 212.717C347.822 212.491 348.047 212.317 348.243 212.204C348.143 212.156 348.04 212.113 347.938 212.066Z" fill="black"/>
<path opacity="0.2" d="M345.115 214.915C345.149 214.64 345.826 213.997 346.386 213.349C345.802 213.335 344.891 214.822 345.115 214.915Z" fill="black"/>
<path opacity="0.2" d="M299.582 260.638L299.205 260.624L299.104 260.716L299.582 260.638Z" fill="black"/>
</svg>
