<svg width="240" height="308" viewBox="0 0 240 308" fill="none" xmlns="http://www.w3.org/2000/svg">
<circle cx="120" cy="184" r="120" fill="white"/>
<circle cx="120" cy="184" r="115" stroke="#6F42C1" stroke-opacity="0.75" stroke-width="10"/>
<path d="M216.127 67L154.676 305H85.3238L23.873 67H67.5899L117.07 291.218H122.93L172.41 67H216.127Z" fill="#6F42C1" stroke="#6F42C1" stroke-width="6"/>
<path d="M83.2153 5.696C80.1006 13.1627 76.9646 20.5653 73.8073 27.904C70.6926 35.2427 67.5779 42.624 64.4633 50.048C61.3486 42.624 58.2126 35.2427 55.0553 27.904C51.8979 20.5653 48.7619 13.1627 45.6473 5.696H40.2713V3.2H53.1353V5.696H48.3353C50.9379 11.8827 53.5193 18.0267 56.0793 24.128C58.6819 30.1867 61.2846 36.2667 63.8873 42.368L64.4633 44.224L65.0393 42.368C67.6419 36.2667 70.2233 30.1867 72.7833 24.128C75.3859 18.0267 77.9673 11.8827 80.5273 5.696H76.1113V3.2H88.9753V5.696H83.2153ZM105.811 48H93.4588V45.504H98.3868V26.496H93.4588V24H101.011V45.504H105.811V48ZM101.843 15.488C101.843 16.0853 101.629 16.5973 101.203 17.024C100.776 17.408 100.285 17.6 99.7308 17.6C99.2188 17.6 98.7494 17.408 98.3228 17.024C97.8961 16.5973 97.6828 16.0853 97.6828 15.488C97.6828 14.8907 97.8961 14.4 98.3228 14.016C98.7494 13.5893 99.2188 13.376 99.7308 13.376C100.285 13.376 100.776 13.5893 101.203 14.016C101.629 14.4 101.843 14.8907 101.843 15.488ZM131.903 44.8C130.751 45.952 129.386 46.848 127.807 47.488C126.271 48.128 124.629 48.448 122.879 48.448C121.087 48.448 119.423 48.128 117.887 47.488C116.394 46.848 115.093 45.952 113.983 44.8C112.831 43.6907 111.935 42.3893 111.295 40.896C110.655 39.36 110.335 37.7173 110.335 35.968C110.335 34.2613 110.655 32.64 111.295 31.104C111.935 29.568 112.831 28.224 113.983 27.072C115.093 25.9627 116.415 25.088 117.951 24.448C119.487 23.7653 121.13 23.424 122.879 23.424C124.629 23.424 126.271 23.7653 127.807 24.448C129.386 25.088 130.751 25.9627 131.903 27.072C133.013 28.224 133.887 29.568 134.527 31.104C135.21 32.64 135.551 34.2613 135.551 35.968C135.551 37.7173 135.21 39.3387 134.527 40.832C133.887 42.3253 133.013 43.648 131.903 44.8ZM115.839 42.944C116.735 43.8827 117.781 44.608 118.975 45.12C120.17 45.632 121.45 45.888 122.815 45.888C124.181 45.888 125.461 45.632 126.655 45.12C127.893 44.608 128.959 43.8827 129.855 42.944C130.794 42.0907 131.519 41.0667 132.031 39.872C132.543 38.6773 132.799 37.376 132.799 35.968C132.799 34.6453 132.543 33.3867 132.031 32.192C131.519 30.9547 130.794 29.8667 129.855 28.928C128.959 28.032 127.893 27.328 126.655 26.816C125.461 26.304 124.181 26.048 122.815 26.048C121.45 26.048 120.17 26.304 118.975 26.816C117.781 27.328 116.735 28.032 115.839 28.928C114.943 29.8667 114.239 30.9333 113.727 32.128C113.215 33.3227 112.959 34.6027 112.959 35.968C112.959 37.376 113.215 38.6773 113.727 39.872C114.239 41.0667 114.943 42.0907 115.839 42.944ZM152.373 48H140.021V45.504H144.757V2.496H140.213V-3.8147e-06H147.381V45.504H152.373V48ZM169.378 26.048C167.756 26.048 166.263 26.3893 164.898 27.072C163.575 27.7547 162.466 28.672 161.57 29.824C160.716 30.9333 160.119 32.192 159.778 33.6C159.436 34.9653 159.415 36.3733 159.714 37.824C162.615 36.672 165.495 35.5413 168.354 34.432C171.255 33.28 174.156 32.128 177.058 30.976C176.29 29.5253 175.223 28.352 173.858 27.456C172.535 26.5173 171.042 26.048 169.378 26.048ZM177.762 45.12C176.652 46.144 175.394 46.9547 173.986 47.552C172.578 48.1493 171.042 48.448 169.378 48.448C167.628 48.448 165.986 48.128 164.45 47.488C162.956 46.848 161.634 45.952 160.482 44.8C159.33 43.648 158.434 42.3253 157.794 40.832C157.154 39.3387 156.834 37.7173 156.834 35.968C156.834 34.2613 157.154 32.64 157.794 31.104C158.434 29.568 159.33 28.2453 160.482 27.136C161.634 26.0267 162.956 25.152 164.45 24.512C165.986 23.8293 167.628 23.488 169.378 23.488C170.7 23.488 171.959 23.7227 173.154 24.192C174.348 24.6187 175.415 25.2587 176.354 26.112C177.25 26.88 178.039 27.8187 178.722 28.928C179.404 29.9947 179.959 31.168 180.386 32.448C177.058 33.7707 173.73 35.072 170.402 36.352C167.116 37.632 163.81 38.9547 160.482 40.32C161.25 41.984 162.423 43.328 164.002 44.352C165.58 45.376 167.372 45.888 169.378 45.888C170.7 45.888 171.938 45.6533 173.09 45.184C174.242 44.7147 175.266 44.0533 176.162 43.2L177.762 45.12ZM198.524 48H190.652V26.56H185.084V24H190.652V8.384H193.276V24H200.7V26.56H193.276V45.504H198.524V48Z" fill="#6F42C1"/>
</svg>
